<svg xmlns="http://www.w3.org/2000/svg" width="82.748" height="43.95" viewBox="0 0 82.748 43.95">
  <g id="Grupo_54" data-name="Grupo 54" transform="translate(-47.637)">
    <g id="Grupo_7" data-name="Grupo 7" transform="translate(0 -0.001)">
      <path id="Trazado_42" data-name="Trazado 42" d="M64.521,42.162l.009,1.725h-.144c.01.247.029.485.048.732h7.294a20.205,20.205,0,1,1,40.086,0h7.628c.019-.2.038-.391.048-.591h.124c.01-.124.019-.257.019-.381h-.138l-.009-1.724L119.48,40.2h.143c0-.038-.01-.067-.01-.1h-.143a27.485,27.485,0,0,0-6.76-16.124l.143-.143c-.057-.067-.114-.124-.171-.191l-.1.106-1.225-1.215-1.226-1.214.1-.1h0c-.057-.057-.114-.1-.172-.153l-.133.133a27.561,27.561,0,0,0-16.191-6.617v-.162a.464.464,0,0,1-.114-.01h0v.149l-1.727.01-1.723.006v-.135c-.124,0-.247.01-.371.019l.01.133a27.56,27.56,0,0,0-16.133,6.77l-.019-.029c-.019.01-.029.029-.048.038h0l.1.1-1.215,1.225-1.215,1.226-.1-.1,0,0c-.1.1-.181.21-.277.315l.01.01c-.5.572-.954,1.154-1.392,1.754a27.546,27.546,0,0,0-5.139,14.532v0h.147Zm45.572-15.126a.739.739,0,1,1,0,1.045.739.739,0,0,1,0-1.045" transform="translate(-2.992 -0.669)" fill="#ff7e54"/>
      <path id="Trazado_43" data-name="Trazado 43" d="M72.376,22.6l1.215-1.226-.1-.1L72.32,20.113l-.2.2a.481.481,0,0,0-.558-.506s.111-.112-.023-.466-.8-.042-1.355-.416S66.8,14.24,65.4,12.983a2.022,2.022,0,0,0-2.883-.164A2.023,2.023,0,0,0,62.7,15.7c1.272,1.389,5.6,4.184,5.983,4.737s.072,1.22.427,1.352.467.019.467.019a.48.48,0,0,0,.512.552l-.2.2,1.168,1.159.1.1Z" transform="translate(-2.882 -0.571)" fill="#ff7e54"/>
      <path id="Trazado_44" data-name="Trazado 44" d="M113.583,22.414l1.224,1.215.1-.106,1.156-1.164-.2-.2a.482.482,0,0,0,.508-.558s.112.112.466-.024.041-.8.414-1.353,4.684-3.389,5.941-4.791a2.022,2.022,0,0,0,.166-2.884,2.021,2.021,0,0,0-2.882.19c-1.393,1.269-4.186,5.6-4.739,5.983s-1.219.072-1.351.426-.021.466-.021.466a.482.482,0,0,0-.553.513l-.2-.2L112.454,21.1l-.1.1Z" transform="translate(-5.223 -0.559)" fill="#ff7e54"/>
      <path id="Trazado_45" data-name="Trazado 45" d="M93.128,13.892l1.727-.01v-.149l-.007-1.639h-.283a.478.478,0,0,0-.034-.751s.157,0,.313-.348-.537-.593-.665-1.25.915-5.707.812-7.589a1.927,1.927,0,1,0-3.825.015c-.087,1.884,1,6.922.881,7.581s-.812.914-.654,1.259.314.343.314.343a.481.481,0,0,0-.026.752l-.284,0,.009,1.651V13.9Z" transform="translate(-4.238 0)" fill="#ff7e54"/>
      <path id="Trazado_46" data-name="Trazado 46" d="M122.173,43.17l.009,1.723h.138l1.65-.007V44.6a.481.481,0,0,0,.752-.034s0,.156.347.311.594-.536,1.252-.665,5.706.918,7.587.813a1.927,1.927,0,1,0-.015-3.825c-1.885-.086-6.922,1-7.583.879s-.913-.81-1.256-.653-.345.317-.345.317a.48.48,0,0,0-.752-.03v-.281l-1.646.007h-.144Z" transform="translate(-5.679 -1.915)" fill="#ff7e54"/>
      <path id="Trazado_47" data-name="Trazado 47" d="M52.134,45.389c1.883.086,6.922-1,7.581-.88s.912.812,1.258.653.341-.315.341-.315a.483.483,0,0,0,.756.028v.282l1.646-.008h.144l-.009-1.725L63.844,41.7H63.7l-1.641.008v.282a.484.484,0,0,0-.754.033s0-.155-.345-.311-.594.536-1.252.665-5.707-.916-7.59-.814a1.928,1.928,0,1,0,.018,3.826" transform="translate(-2.323 -1.931)" fill="#ff7e54"/>
      <path id="Trazado_48" data-name="Trazado 48" d="M95.5,26.527a.3.3,0,0,0-.305-.305H92.164a.3.3,0,0,0-.305.305v3.7H95.5Z" transform="translate(-4.27 -1.219)" fill="#ff7e54"/>
      <path id="Trazado_49" data-name="Trazado 49" d="M92.164,45.542H95.2a.306.306,0,0,0,.306-.305V34.247H91.859v10.99a.3.3,0,0,0,.305.305" transform="translate(-4.27 -1.592)" fill="#ff7e54"/>
      <path id="Trazado_50" data-name="Trazado 50" d="M99.426,34.069a.409.409,0,0,0,.409-.41V30.835a.409.409,0,0,0-.409-.409H87.492a.41.41,0,0,0-.41.409v2.824a.41.41,0,0,0,.41.41H99.426Z" transform="translate(-4.048 -1.414)" fill="#ff7e54"/>
    </g>
  </g>
</svg>
