<svg xmlns="http://www.w3.org/2000/svg" width="49.178" height="49.178" viewBox="0 0 49.178 49.178">
  <path id="comment_FILL0_wght400_GRAD0_opsz48" d="M13.836,33.507H43.343V29.819H13.836Zm0-7.991H43.343V21.827H13.836Zm0-7.991H43.343V13.836H13.836ZM53.178,53.178l-9.836-9.836H7.688a3.528,3.528,0,0,1-2.551-1.137A3.528,3.528,0,0,1,4,39.654V7.688A3.528,3.528,0,0,1,5.137,5.137,3.528,3.528,0,0,1,7.688,4h41.8a3.493,3.493,0,0,1,2.582,1.137,3.573,3.573,0,0,1,1.107,2.551ZM7.688,7.688V39.654H44.879l4.61,4.61V7.688H7.688Zm0,0V39.654h0V7.688Z" transform="translate(-4 -4)" fill="#fafafa"/>
</svg>
