<svg xmlns="http://www.w3.org/2000/svg" xmlns:xlink="http://www.w3.org/1999/xlink" width="96.537" height="43.424" viewBox="0 0 96.537 43.424">
  <defs>
    <clipPath id="clip-path">
      <rect id="Rectángulo_106" data-name="Rectángulo 106" width="96.537" height="43.424" fill="#245086"/>
    </clipPath>
  </defs>
  <g id="Grupo_53" data-name="Grupo 53" transform="translate(0 0)">
    <g id="Grupo_4" data-name="Grupo 4" transform="translate(0 -0.001)" clip-path="url(#clip-path)">
      <path id="Trazado_10" data-name="Trazado 10" d="M2.653,60.937a.891.891,0,0,1-.568-.185,1.009,1.009,0,0,1-.277-.594A6.6,6.6,0,0,1,1.729,59v-4.33L7.023,61.61a3.236,3.236,0,0,0,.363-.02,1.7,1.7,0,0,0,.31-.059V55.09a6.867,6.867,0,0,1,.073-1.142,1.034,1.034,0,0,1,.244-.567.7.7,0,0,1,.476-.178,2.05,2.05,0,0,0,.052-.317c.009-.106.013-.211.013-.317-.177.009-.385.018-.627.026s-.46.013-.653.013c-.124,0-.264,0-.423-.007l-.469-.013c-.154,0-.3-.011-.429-.02a1.882,1.882,0,0,0,.02.27q.02.138.059.363a.919.919,0,0,1,.574.185.964.964,0,0,1,.284.567A6.158,6.158,0,0,1,6.97,55.09v4l-4.9-6.526c-.123.009-.273.018-.449.026s-.352.013-.528.013q-.172,0-.377-.007l-.4-.013q-.191-.007-.323-.02,0,.132.013.31a1.751,1.751,0,0,0,.053.323,1.975,1.975,0,0,1,.515.112.9.9,0,0,1,.343.3l.079.1V59a6.169,6.169,0,0,1-.086,1.162,1.044,1.044,0,0,1-.284.594.891.891,0,0,1-.568.185,1.45,1.45,0,0,0-.053.284Q0,61.373,0,61.571c.106-.009.239-.016.4-.02l.515-.013q.271-.007.455-.007c.132,0,.277,0,.436.007l.481.013c.163,0,.31.011.442.02,0-.132,0-.249-.013-.35a1.018,1.018,0,0,0-.066-.284" transform="translate(0 -24.413)" fill="#245086"/>
      <path id="Trazado_11" data-name="Trazado 11" d="M24.656,61.557q.066-.488.165-1.036a7.566,7.566,0,0,1,.244-1,1.268,1.268,0,0,0-.3-.2,1.909,1.909,0,0,0-.4-.132,4.109,4.109,0,0,1-.423.924,1.476,1.476,0,0,1-.693.561,3.571,3.571,0,0,1-1.327.191h-.106a2,2,0,0,1-.726-.106.594.594,0,0,1-.357-.383,2.55,2.55,0,0,1-.093-.779V57.359h.713a1.789,1.789,0,0,1,1.076.237,1.237,1.237,0,0,1,.35.9,2.671,2.671,0,0,0,.323.059,3.138,3.138,0,0,0,.363.02q-.013-.344-.02-.753c0-.273-.007-.537-.007-.792s0-.495.007-.746.011-.486.02-.706a3.074,3.074,0,0,0-.357.02,1.59,1.59,0,0,0-.356.086.991.991,0,0,1-.31.831,1.994,1.994,0,0,1-1.089.212h-.713V53.2h1.148a2.65,2.65,0,0,1,1.261.244,1.447,1.447,0,0,1,.627.62,2.292,2.292,0,0,1,.225.8,1.877,1.877,0,0,0,.4-.039.741.741,0,0,0,.3-.132q-.066-.29-.118-.667t-.093-.772c-.026-.265-.048-.493-.066-.687q-.238,0-.713.013T22.4,52.6q-.739.007-1.769.007h-.508q-.324,0-.687-.007l-.686-.013c-.216,0-.395-.011-.535-.02q0,.172.013.343a1.2,1.2,0,0,0,.053.29,1.42,1.42,0,0,1,.554.132.576.576,0,0,1,.277.35,2.463,2.463,0,0,1,.079.719v5.2a3.092,3.092,0,0,1-.079.8.615.615,0,0,1-.277.39,1.333,1.333,0,0,1-.554.138,1,1,0,0,0-.053.271q-.014.165-.013.363.251-.013.687-.019l.957-.013q.521-.006,1.016-.006h.865q.607,0,1.168.006t1.017.006q.456,0,.733.013" transform="translate(-8.459 -24.413)" fill="#245086"/>
      <path id="Trazado_12" data-name="Trazado 12" d="M43.98,53.381a.883.883,0,0,1,.39-.238,1.222,1.222,0,0,0,.086-.317,2.623,2.623,0,0,0,.02-.317q-.264.014-.627.026t-.667.013q-.357,0-.7-.013c-.229-.009-.435-.017-.62-.026a2.928,2.928,0,0,0,.019.31,1.4,1.4,0,0,0,.073.323.894.894,0,0,1,.8.495,2.452,2.452,0,0,1-.152,1.393l-1.3,4.136c-.217-.623-.441-1.257-.678-1.911q-.443-1.221-.9-2.449t-.891-2.363q-.211,0-.377.013a1.226,1.226,0,0,0-.283.053l-2.259,6.6c-.112-.377-.227-.762-.349-1.166q-.271-.9-.548-1.775t-.528-1.63a4.469,4.469,0,0,1-.224-.878.347.347,0,0,1,.171-.383,1.974,1.974,0,0,1,.66-.139,1.919,1.919,0,0,0,.052-.33c.009-.114.013-.215.013-.3-.168.009-.358.016-.574.02l-.621.013c-.2,0-.367.006-.508.006H33.1q-.2,0-.435-.006l-.435-.013c-.136,0-.258-.011-.363-.02,0,.106,0,.216.013.33a1.652,1.652,0,0,0,.053.317.9.9,0,0,1,.376.112.927.927,0,0,1,.284.4q.145.317.383,1.03.554,1.663,1.1,3.4t1.075,3.491c.071,0,.148,0,.231-.007a2.357,2.357,0,0,0,.251-.026,1.345,1.345,0,0,0,.205-.046l2.249-6.674c.259.669.518,1.353.78,2.06q.442,1.2.878,2.376t.831,2.317a3.443,3.443,0,0,0,.357-.02,1.813,1.813,0,0,0,.317-.059l2.006-6.455q.238-.713.4-1.109a1.812,1.812,0,0,1,.324-.568" transform="translate(-14.8 -24.355)" fill="#245086"/>
      <path id="Trazado_13" data-name="Trazado 13" d="M67.627,61.57c0-.106,0-.215-.013-.33a1.71,1.71,0,0,0-.053-.317,1.082,1.082,0,0,1-.508-.178.877.877,0,0,1-.29-.495,7.175,7.175,0,0,1-.178-1.03l-.449-4.647a1.478,1.478,0,0,1,.152-1.089.914.914,0,0,1,.733-.283,1.73,1.73,0,0,0,.053-.311c.008-.11.013-.217.013-.324-.115.009-.235.016-.363.02l-.383.013q-.192.007-.376.007t-.377-.007l-.409-.013c-.137,0-.262-.011-.377-.02l-2.744,7.054-3.17-7.054c-.106.009-.222.016-.35.02l-.389.013c-.132,0-.26.007-.383.007s-.242,0-.383-.007l-.409-.013c-.132,0-.247-.011-.343-.02,0,.1,0,.2.013.317a1.177,1.177,0,0,0,.066.317,1.156,1.156,0,0,1,.574.118.594.594,0,0,1,.27.4,2.706,2.706,0,0,1,.027.785l-.409,4.463a6.571,6.571,0,0,1-.185,1.221,1.018,1.018,0,0,1-.33.555,1.166,1.166,0,0,1-.555.191,1.209,1.209,0,0,0-.066.33c-.009.124-.013.225-.013.3.115-.009.253-.016.416-.02l.5-.013q.257-.006.455-.006c.212,0,.451,0,.72.006s.5.016.706.033a2.8,2.8,0,0,0-.02-.3,2.112,2.112,0,0,0-.059-.33,1.175,1.175,0,0,1-.594-.2.78.78,0,0,1-.264-.548,5.422,5.422,0,0,1,.013-1.128L58.3,55l3.026,6.645a2.625,2.625,0,0,0,.33-.02,1.2,1.2,0,0,0,.29-.072l2.689-6.546.466,4.381a4.644,4.644,0,0,1,.033.917.569.569,0,0,1-.224.449,1.5,1.5,0,0,1-.614.178,2.114,2.114,0,0,0-.059.317,2.741,2.741,0,0,0-.02.317c.14-.009.31-.016.508-.02l.607-.013c.206,0,.394-.006.561-.006h.416q.231,0,.482.006l.469.013c.145,0,.266.011.363.02" transform="translate(-26.018 -24.413)" fill="#245086"/>
      <path id="Trazado_14" data-name="Trazado 14" d="M87.733,61.536c0-.123,0-.231-.013-.323a1.633,1.633,0,0,0-.066-.31.912.912,0,0,1-.35-.145,1.11,1.11,0,0,1-.3-.383q-.152-.277-.389-.792l-3.1-7.088q-.186,0-.317.013c-.088.009-.18.022-.277.04L80.169,59.49a8.592,8.592,0,0,1-.35.812,1.368,1.368,0,0,1-.31.429.812.812,0,0,1-.4.171,1.394,1.394,0,0,0-.073.31,2.794,2.794,0,0,0-.019.323c.123-.009.285-.018.488-.026s.413-.013.634-.013q.224,0,.462.006l.462.013c.149,0,.273.011.37.02a2.745,2.745,0,0,0-.02-.343,1.194,1.194,0,0,0-.072-.29q-.529-.053-.634-.356a1.657,1.657,0,0,1,.159-1l.3-.773c.511-.022,1.057-.04,1.65-.052.621-.012,1.207-.018,1.763-.019l.5,1.174q.251.582.159.766t-.62.264a.994.994,0,0,0-.073.284,3.017,3.017,0,0,0-.02.35c.08,0,.185,0,.317-.006l.442-.013.475-.013c.154,0,.284-.006.389-.006.141,0,.317,0,.528.006l.614.013c.2,0,.345.011.442.02m-6.3-3.472.831-2.165q.145-.4.284-.8c.073-.213.153-.457.234-.719.088.25.171.481.247.68q.145.376.357.851l.918,2.152Z" transform="translate(-36.699 -24.379)" fill="#245086"/>
      <path id="Trazado_15" data-name="Trazado 15" d="M104.782,55.089a6.86,6.86,0,0,1,.073-1.142,1.038,1.038,0,0,1,.244-.568.707.707,0,0,1,.475-.178,1.972,1.972,0,0,0,.053-.317c.009-.106.013-.212.013-.317-.177.009-.385.018-.627.026s-.46.013-.653.013c-.124,0-.264,0-.423-.006l-.469-.013c-.154,0-.3-.011-.429-.02a1.876,1.876,0,0,0,.02.27q.02.139.059.363a.927.927,0,0,1,.574.185.964.964,0,0,1,.284.568,6.151,6.151,0,0,1,.079,1.135v4l-4.9-6.526q-.185.014-.449.026c-.176.009-.352.013-.528.013q-.172,0-.377-.006l-.4-.013q-.191-.006-.323-.02c0,.088,0,.191.013.31a1.751,1.751,0,0,0,.053.323,1.971,1.971,0,0,1,.515.112.9.9,0,0,1,.343.3l.079.1V59A6.166,6.166,0,0,1,98,60.157a1.043,1.043,0,0,1-.284.595.888.888,0,0,1-.567.184,1.456,1.456,0,0,0-.053.284c-.009.1-.013.217-.013.35.106-.009.239-.016.4-.02L98,61.537q.271-.006.455-.006c.132,0,.277,0,.436.006l.481.013q.244.006.442.02c0-.132,0-.249-.013-.35a1.021,1.021,0,0,0-.066-.284.89.89,0,0,1-.568-.184,1.011,1.011,0,0,1-.277-.595A6.6,6.6,0,0,1,98.815,59v-4.33l5.294,6.944a3.236,3.236,0,0,0,.363-.02,1.8,1.8,0,0,0,.31-.059Z" transform="translate(-45.088 -24.413)" fill="#245086"/>
      <path id="Trazado_16" data-name="Trazado 16" d="M127.237,60.175a.574.574,0,0,0-.165-.2,4.941,4.941,0,0,1-1.175.541,4.156,4.156,0,0,1-1.241.2,2.852,2.852,0,0,1-1.769-.548,3.4,3.4,0,0,1-1.1-1.485,5.6,5.6,0,0,1-.377-2.1,5.2,5.2,0,0,1,.165-1.32,3.43,3.43,0,0,1,.515-1.129,2.562,2.562,0,0,1,.911-.792,2.823,2.823,0,0,1,1.34-.3,2.373,2.373,0,0,1,.97.185,1.336,1.336,0,0,1,.653.673,3.483,3.483,0,0,1,.264,1.386,2.566,2.566,0,0,0,.422-.033,1.9,1.9,0,0,0,.37-.1q0-.541.026-1.063a6.784,6.784,0,0,1,.119-.984,7.241,7.241,0,0,0-1.412-.515,6.327,6.327,0,0,0-1.505-.171,4.958,4.958,0,0,0-1.65.277,4.125,4.125,0,0,0-1.419.845,4.077,4.077,0,0,0-1,1.412,4.909,4.909,0,0,0-.37,1.98,5.159,5.159,0,0,0,.548,2.422,4.007,4.007,0,0,0,3.7,2.224,4.966,4.966,0,0,0,1.776-.29,5.788,5.788,0,0,0,1.5-.871,1.168,1.168,0,0,0-.1-.244" transform="translate(-55.642 -24.344)" fill="#245086"/>
      <path id="Trazado_17" data-name="Trazado 17" d="M142.633,60.52a7.566,7.566,0,0,1,.244-1,.988.988,0,0,0-.291-.2,2.029,2.029,0,0,0-.409-.132,3.893,3.893,0,0,1-.455.983,1.41,1.41,0,0,1-.66.535,3.082,3.082,0,0,1-1.1.159h-.105a1.948,1.948,0,0,1-.72-.106.6.6,0,0,1-.35-.383,2.573,2.573,0,0,1-.092-.779V54.442a2.68,2.68,0,0,1,.079-.746.574.574,0,0,1,.284-.363,1.441,1.441,0,0,1,.548-.132,1.179,1.179,0,0,0,.052-.284q.014-.165.013-.35-.264.014-.548.02l-.574.013c-.193,0-.388.007-.581.007q-.238,0-.528-.007l-.588-.013c-.2,0-.394-.011-.588-.02q0,.172.013.343a1.2,1.2,0,0,0,.052.29,1.418,1.418,0,0,1,.555.132.576.576,0,0,1,.277.35,2.464,2.464,0,0,1,.079.719v5.2a2.877,2.877,0,0,1-.086.806.641.641,0,0,1-.284.389,1.333,1.333,0,0,1-.554.138,1,1,0,0,0-.053.271c-.009.11-.013.231-.013.363q.251-.013.687-.019l.957-.013q.521-.006,1.017-.006h.864q.5,0,1.017.006t.963.006q.449,0,.713.013.066-.488.165-1.036" transform="translate(-63.276 -24.413)" fill="#245086"/>
      <path id="Trazado_18" data-name="Trazado 18" d="M156.971,59.775a8.928,8.928,0,0,0,.145-1.808V54.878a5.627,5.627,0,0,1,.066-.983.864.864,0,0,1,.238-.5.887.887,0,0,1,.488-.191q.039-.225.053-.37c.008-.1.013-.185.013-.265q-.251.014-.607.027c-.237.009-.462.013-.673.013-.132,0-.277,0-.435-.007l-.456-.013c-.145,0-.275-.011-.389-.02a2.206,2.206,0,0,0,.02.291c.013.1.033.211.059.343a1.066,1.066,0,0,1,.575.2.836.836,0,0,1,.257.508,5.739,5.739,0,0,1,.066,1v3.129a8.995,8.995,0,0,1-.059,1.142,3.048,3.048,0,0,1-.172.719,1.555,1.555,0,0,1-.31.488,1.483,1.483,0,0,1-.646.4,2.394,2.394,0,0,1-.7.118,2.138,2.138,0,0,1-1.281-.336,1.8,1.8,0,0,1-.654-.937,4.453,4.453,0,0,1-.191-1.353V54.415a3.057,3.057,0,0,1,.066-.752.487.487,0,0,1,.257-.33,1.809,1.809,0,0,1,.575-.132,1.734,1.734,0,0,0,.052-.311c.009-.11.013-.217.013-.324-.1.009-.216.016-.357.02l-.442.013q-.231.007-.475.007h-.442q-.435,0-.871-.013t-.7-.027c0,.106,0,.214.013.324a1.639,1.639,0,0,0,.053.311,1.836,1.836,0,0,1,.5.138.465.465,0,0,1,.23.33,3.413,3.413,0,0,1,.06.746v4.053a4.5,4.5,0,0,0,.3,1.749,2.07,2.07,0,0,0,1.017,1.075,4.423,4.423,0,0,0,1.954.357,3.912,3.912,0,0,0,1.241-.185,2.438,2.438,0,0,0,.937-.554,2.244,2.244,0,0,0,.607-1.135" transform="translate(-69.687 -24.413)" fill="#245086"/>
      <path id="Trazado_19" data-name="Trazado 19" d="M173.791,57.663a2.041,2.041,0,0,0-.924-.706,4.176,4.176,0,0,0-1.32-.271,2.289,2.289,0,0,0,1.426-.739,2.107,2.107,0,0,0,.515-1.426,1.7,1.7,0,0,0-.377-1.175,2.026,2.026,0,0,0-1.036-.594,6.112,6.112,0,0,0-1.532-.172q-.316,0-.673.007l-.713.013q-.357.007-.687.007c-.229,0-.471,0-.726-.013s-.471-.018-.646-.027q0,.172.013.344a1.2,1.2,0,0,0,.053.29,1.428,1.428,0,0,1,.554.132.58.58,0,0,1,.277.35,2.492,2.492,0,0,1,.079.72v5.2a2.875,2.875,0,0,1-.086.8.638.638,0,0,1-.283.389,1.341,1.341,0,0,1-.555.139,1,1,0,0,0-.052.27q-.014.166-.014.363.291-.013.753-.02l1-.013q.534-.007,1.056-.007h.917a4.567,4.567,0,0,0,1.921-.343,2.3,2.3,0,0,0,1.07-.937,2.631,2.631,0,0,0,.336-1.32,2.119,2.119,0,0,0-.343-1.267m-3.709-4.436a2.54,2.54,0,0,1,.852.152,1.568,1.568,0,0,1,.719.521,1.607,1.607,0,0,1,.29,1.017,1.93,1.93,0,0,1-.172.812,1.31,1.31,0,0,1-.6.607,2.622,2.622,0,0,1-1.221.231h-.422V53.3c.069-.017.147-.039.2-.049a2.2,2.2,0,0,1,.35-.026m1.967,7.195a1.723,1.723,0,0,1-1.333.475,2.379,2.379,0,0,1-.713-.086.573.573,0,0,1-.37-.363,2.412,2.412,0,0,1-.105-.818V57.2h.317a5.626,5.626,0,0,1,.944.079,2.979,2.979,0,0,1,.859.277,1.478,1.478,0,0,1,.614.581,1.911,1.911,0,0,1,.224.977,1.859,1.859,0,0,1-.435,1.307" transform="translate(-77.596 -24.413)" fill="#245086"/>
      <path id="Trazado_20" data-name="Trazado 20" d="M8.984,77.037a.319.319,0,0,0-.236.091.293.293,0,0,0-.091.214.275.275,0,0,0,.08.2.3.3,0,0,0,.225.08.346.346,0,0,0,.22-.075.28.28,0,0,0,.1-.236.292.292,0,0,0-.078-.185.267.267,0,0,0-.217-.094" transform="translate(-4.02 -35.777)" fill="#245086"/>
      <path id="Trazado_21" data-name="Trazado 21" d="M15.413,77.212a2.068,2.068,0,0,1-.493.23,1.71,1.71,0,0,1-.524.086,1.2,1.2,0,0,1-.734-.225,1.439,1.439,0,0,1-.469-.613,2.213,2.213,0,0,1-.163-.865,2.049,2.049,0,0,1,.072-.546,1.392,1.392,0,0,1,.224-.469,1.1,1.1,0,0,1,.394-.329,1.258,1.258,0,0,1,.578-.123,1.05,1.05,0,0,1,.412.075.554.554,0,0,1,.279.279,1.424,1.424,0,0,1,.112.584.94.94,0,0,0,.15-.011.693.693,0,0,0,.134-.037c0-.146,0-.29.011-.431a2.624,2.624,0,0,1,.048-.4,3.116,3.116,0,0,0-.574-.209,2.524,2.524,0,0,0-.615-.07,1.976,1.976,0,0,0-.662.112,1.681,1.681,0,0,0-.573.343,1.658,1.658,0,0,0-.4.573,2,2,0,0,0-.15.8,2.116,2.116,0,0,0,.22.983,1.665,1.665,0,0,0,.6.664,1.633,1.633,0,0,0,.882.238,2.043,2.043,0,0,0,.715-.115,2.389,2.389,0,0,0,.624-.362.256.256,0,0,0-.035-.088.281.281,0,0,0-.062-.078" transform="translate(-5.79 -34.431)" fill="#245086"/>
      <path id="Trazado_22" data-name="Trazado 22" d="M23.668,77.606a.377.377,0,0,1-.142-.059.449.449,0,0,1-.121-.15q-.059-.107-.15-.305L21.98,74.168a.921.921,0,0,0-.11.005c-.03,0-.063.009-.1.016l-1.109,2.844q-.08.209-.141.329a.56.56,0,0,1-.126.174.371.371,0,0,1-.16.075.388.388,0,0,0-.03.11.893.893,0,0,0-.008.115l.193-.011c.078,0,.162-.005.251-.005.061,0,.123,0,.185,0l.179.005c.057,0,.106,0,.145.008a.829.829,0,0,0-.009-.123.384.384,0,0,0-.029-.107q-.219-.016-.265-.137a.726.726,0,0,1,.072-.437l.142-.371c.207-.006.434-.011.685-.014s.5,0,.733-.005l.234.546q.107.247.067.319t-.26.1a.4.4,0,0,0-.029.107,1,1,0,0,0-.008.123l.116,0,.163-.005.177-.005c.057,0,.108,0,.151,0s.126,0,.208,0l.236.005c.074,0,.13,0,.165.008,0-.043,0-.08,0-.112a.706.706,0,0,0-.027-.118M21.163,76.4l.368-.959q.048-.129.1-.27c.031-.085.065-.19.1-.308.044.114.082.212.114.289l.123.295.408.953Z" transform="translate(-9.38 -34.444)" fill="#245086"/>
      <path id="Trazado_23" data-name="Trazado 23" d="M30.865,74.2c-.1,0-.218.008-.365.011s-.306.005-.479.005H28.96q-.254,0-.471-.005l-.366-.011c0,.122-.007.257-.021.407s-.036.3-.064.45a.352.352,0,0,0,.123.037.9.9,0,0,0,.134.011,1.922,1.922,0,0,1,.094-.343.46.46,0,0,1,.187-.228.736.736,0,0,1,.388-.083h.273v2.7a.868.868,0,0,1-.035.276.225.225,0,0,1-.129.139.818.818,0,0,1-.265.051.371.371,0,0,0-.021.1c0,.037-.006.081-.006.131q.1-.006.22-.008l.244-.005.238,0,.351,0c.119,0,.237.006.35.013,0-.05,0-.094,0-.131a.393.393,0,0,0-.021-.1.8.8,0,0,1-.263-.051.217.217,0,0,1-.123-.139.928.928,0,0,1-.033-.276v-2.7h.284a.567.567,0,0,1,.458.169.758.758,0,0,1,.147.485.547.547,0,0,0,.147-.008.476.476,0,0,0,.121-.04c-.014-.171-.024-.325-.029-.461s-.006-.268,0-.4" transform="translate(-13.021 -34.458)" fill="#245086"/>
      <path id="Trazado_24" data-name="Trazado 24" d="M38.506,74.616a.23.23,0,0,1,.115-.139.528.528,0,0,1,.222-.048.4.4,0,0,0,.021-.1c0-.039.005-.082.005-.129-.071,0-.142.006-.212.008l-.212.005-.225,0-.225,0-.217-.005c-.07,0-.138,0-.206-.008,0,.047,0,.089.005.129a.378.378,0,0,0,.021.1.52.52,0,0,1,.224.048.232.232,0,0,1,.113.139.944.944,0,0,1,.032.279v.969H36.337v-.969a.926.926,0,0,1,.032-.279.23.23,0,0,1,.115-.139.53.53,0,0,1,.222-.048.4.4,0,0,0,.021-.1c0-.039.005-.082.005-.129-.071,0-.142.006-.212.008l-.212.005-.225,0-.224,0-.217-.005c-.07,0-.139,0-.206-.008,0,.047,0,.089.005.129a.378.378,0,0,0,.021.1.524.524,0,0,1,.225.048.233.233,0,0,1,.112.139.926.926,0,0,1,.032.279v2.26a.933.933,0,0,1-.032.276.224.224,0,0,1-.112.139.613.613,0,0,1-.225.051.371.371,0,0,0-.021.1c0,.037-.005.081-.005.131.093-.008.2-.012.316-.013s.228,0,.332,0,.211,0,.322,0,.22.006.327.013c0-.05,0-.094-.005-.131a.393.393,0,0,0-.021-.1.624.624,0,0,1-.222-.051.221.221,0,0,1-.115-.139.933.933,0,0,1-.032-.276v-1.03c.1-.006.214-.012.35-.017s.3-.009.466-.011l.469,0h.348v1.06a.951.951,0,0,1-.032.276.223.223,0,0,1-.113.139.607.607,0,0,1-.224.051.371.371,0,0,0-.021.1c0,.037-.005.081-.005.131.093-.008.2-.012.316-.013s.228,0,.332,0,.21,0,.321,0,.219.006.327.013c0-.05,0-.094-.005-.131a.393.393,0,0,0-.021-.1.622.622,0,0,1-.222-.051.221.221,0,0,1-.115-.139.933.933,0,0,1-.032-.276v-2.26a.926.926,0,0,1,.032-.279" transform="translate(-16.457 -34.458)" fill="#245086"/>
      <path id="Trazado_25" data-name="Trazado 25" d="M46.938,74.371a1.882,1.882,0,0,0-1.6-.1,1.687,1.687,0,0,0-.563.38,1.774,1.774,0,0,0-.377.584,1.972,1.972,0,0,0-.137.75,2.023,2.023,0,0,0,.222.953,1.677,1.677,0,0,0,1.546.916,1.771,1.771,0,0,0,.715-.142,1.689,1.689,0,0,0,.562-.4,1.781,1.781,0,0,0,.367-.594,2.066,2.066,0,0,0,.129-.736,1.963,1.963,0,0,0-.23-.967,1.683,1.683,0,0,0-.629-.648m.174,2.5a1.234,1.234,0,0,1-.383.53.937.937,0,0,1-.6.2,1.1,1.1,0,0,1-.568-.145,1.3,1.3,0,0,1-.415-.391,1.846,1.846,0,0,1-.254-.562,2.5,2.5,0,0,1-.086-.653,1.856,1.856,0,0,1,.145-.761,1.206,1.206,0,0,1,.393-.506.946.946,0,0,1,.566-.179,1.094,1.094,0,0,1,.685.23,1.566,1.566,0,0,1,.475.624,2.148,2.148,0,0,1,.174.876,1.977,1.977,0,0,1-.134.742" transform="translate(-20.554 -34.431)" fill="#245086"/>
      <path id="Trazado_26" data-name="Trazado 26" d="M55.634,76.919a1.65,1.65,0,0,1-.19.4.576.576,0,0,1-.276.214,1.384,1.384,0,0,1-.471.064h-.032a.834.834,0,0,1-.3-.043.242.242,0,0,1-.142-.15.96.96,0,0,1-.037-.305V74.91a1.01,1.01,0,0,1,.032-.289.232.232,0,0,1,.115-.145.53.53,0,0,1,.222-.048.4.4,0,0,0,.022-.1c0-.039,0-.082,0-.129-.072,0-.142.006-.212.008l-.212.005-.225,0-.187,0-.233-.005c-.08,0-.156,0-.228-.008,0,.043,0,.085.005.126a.407.407,0,0,0,.021.1.524.524,0,0,1,.225.048.233.233,0,0,1,.112.139.926.926,0,0,1,.032.279v2.2a1.119,1.119,0,0,1-.035.319.247.247,0,0,1-.115.153.577.577,0,0,1-.225.054.371.371,0,0,0-.021.1c0,.037-.005.081-.005.131.068,0,.159-.006.273-.008l.372-.005c.134,0,.266,0,.4,0h.345c.132,0,.265,0,.4,0l.37,0c.112,0,.2,0,.27.005q.027-.187.067-.4a3.147,3.147,0,0,1,.1-.4.468.468,0,0,0-.1-.078.622.622,0,0,0-.134-.051" transform="translate(-24.743 -34.458)" fill="#245086"/>
      <path id="Trazado_27" data-name="Trazado 27" d="M61.308,74.616a.23.23,0,0,1,.115-.139.53.53,0,0,1,.222-.048.4.4,0,0,0,.021-.1c0-.039.006-.082.006-.129-.072,0-.142.006-.212.008l-.211.005-.225,0-.225,0-.216-.005c-.07,0-.139,0-.207-.008,0,.047,0,.089.006.129a.341.341,0,0,0,.021.1.523.523,0,0,1,.224.048.233.233,0,0,1,.112.139.926.926,0,0,1,.032.279v2.26a.933.933,0,0,1-.032.276.224.224,0,0,1-.112.139.612.612,0,0,1-.224.051.334.334,0,0,0-.021.1c0,.037-.006.081-.006.131.093-.008.2-.012.317-.013s.228,0,.332,0,.21,0,.321,0,.22.006.327.013c0-.05,0-.094-.006-.131a.393.393,0,0,0-.021-.1.624.624,0,0,1-.222-.051.221.221,0,0,1-.115-.139.933.933,0,0,1-.032-.276v-2.26a.926.926,0,0,1,.032-.279" transform="translate(-28.04 -34.458)" fill="#245086"/>
      <path id="Trazado_28" data-name="Trazado 28" d="M68.152,77.212a2.068,2.068,0,0,1-.493.23,1.71,1.71,0,0,1-.524.086A1.2,1.2,0,0,1,66.4,77.3a1.439,1.439,0,0,1-.469-.613,2.213,2.213,0,0,1-.163-.865,2.049,2.049,0,0,1,.072-.546,1.392,1.392,0,0,1,.224-.469,1.1,1.1,0,0,1,.394-.329,1.258,1.258,0,0,1,.578-.123,1.05,1.05,0,0,1,.412.075.554.554,0,0,1,.278.279,1.424,1.424,0,0,1,.112.584.94.94,0,0,0,.15-.011.693.693,0,0,0,.134-.037c0-.146,0-.29.011-.431a2.625,2.625,0,0,1,.048-.4,3.115,3.115,0,0,0-.574-.209,2.524,2.524,0,0,0-.615-.07,1.976,1.976,0,0,0-.662.112,1.681,1.681,0,0,0-.573.343,1.658,1.658,0,0,0-.4.573,2,2,0,0,0-.15.8,2.116,2.116,0,0,0,.22.983,1.665,1.665,0,0,0,.6.664,1.633,1.633,0,0,0,.882.238,2.043,2.043,0,0,0,.715-.115,2.389,2.389,0,0,0,.624-.362.256.256,0,0,0-.035-.088.281.281,0,0,0-.062-.078" transform="translate(-30.283 -34.431)" fill="#245086"/>
      <path id="Trazado_29" data-name="Trazado 29" d="M79.417,74.371a1.882,1.882,0,0,0-1.6-.1,1.687,1.687,0,0,0-.563.38,1.774,1.774,0,0,0-.377.584,1.972,1.972,0,0,0-.137.75,2.023,2.023,0,0,0,.222.953,1.677,1.677,0,0,0,1.546.916,1.771,1.771,0,0,0,.715-.142,1.689,1.689,0,0,0,.562-.4,1.781,1.781,0,0,0,.367-.594,2.067,2.067,0,0,0,.129-.736,1.962,1.962,0,0,0-.23-.967,1.683,1.683,0,0,0-.629-.648m.174,2.5a1.234,1.234,0,0,1-.383.53.937.937,0,0,1-.6.2,1.1,1.1,0,0,1-.568-.145,1.294,1.294,0,0,1-.415-.391,1.846,1.846,0,0,1-.254-.562,2.5,2.5,0,0,1-.086-.653,1.856,1.856,0,0,1,.145-.761,1.206,1.206,0,0,1,.393-.506.946.946,0,0,1,.566-.179,1.094,1.094,0,0,1,.685.23,1.566,1.566,0,0,1,.475.624,2.148,2.148,0,0,1,.174.876,1.977,1.977,0,0,1-.134.742" transform="translate(-35.637 -34.431)" fill="#245086"/>
      <path id="Trazado_30" data-name="Trazado 30" d="M88.552,77.306a3.161,3.161,0,0,1-.284-.372c-.078-.125-.147-.231-.206-.319s-.115-.163-.167-.228a1.707,1.707,0,0,0-.166-.179c-.045-.042-.1-.088-.162-.133a1.624,1.624,0,0,0,.446-.183.968.968,0,0,0,.332-.337.916.916,0,0,0,.116-.463.852.852,0,0,0-.121-.447.815.815,0,0,0-.39-.319,1.864,1.864,0,0,0-.732-.118l-.214,0-.3.005-.322,0-.233,0-.23-.005-.159,0a1.133,1.133,0,0,0,.006.118.475.475,0,0,0,.021.107.483.483,0,0,1,.225.043.236.236,0,0,1,.112.142.957.957,0,0,1,.032.281v2.26a.936.936,0,0,1-.032.276.226.226,0,0,1-.112.139.618.618,0,0,1-.225.051.481.481,0,0,0-.021.112c0,.039-.006.078-.006.118.082-.007.187-.012.313-.013s.237,0,.329,0h.177c.072,0,.149,0,.234,0s.164.006.244.013c0-.04,0-.079-.006-.12a.459.459,0,0,0-.021-.11.624.624,0,0,1-.222-.051.221.221,0,0,1-.115-.139.936.936,0,0,1-.032-.276V76.19c.061,0,.122,0,.187,0s.13,0,.2,0a3.633,3.633,0,0,1,.279.261,2.665,2.665,0,0,1,.238.292c.066.095.135.2.206.313q.166.262.287.439t.281.391a3.393,3.393,0,0,1,.421-.04q.222-.008.42-.008a.545.545,0,0,0,.018-.112c0-.036,0-.075,0-.118a.944.944,0,0,1-.356-.083.918.918,0,0,1-.287-.22m-1.661-1.347c-.046,0-.091,0-.134-.005l-.1-.012V74.487a1.427,1.427,0,0,1,.177-.033,1.915,1.915,0,0,1,.22-.011.945.945,0,0,1,.682.2.7.7,0,0,1,.2.517.715.715,0,0,1-.139.455.8.8,0,0,1-.375.26,1.592,1.592,0,0,1-.53.083" transform="translate(-39.826 -34.463)" fill="#245086"/>
      <path id="Trazado_31" data-name="Trazado 31" d="M96.638,76.07c-.111,0-.231,0-.359-.005s-.227-.007-.3-.011a1.168,1.168,0,0,0,.009.134.457.457,0,0,0,.024.112,1.156,1.156,0,0,1,.3.037.19.19,0,0,1,.129.142,1.516,1.516,0,0,1,.029.356V77.1a.609.609,0,0,1-.046.281.3.3,0,0,1-.137.12.972.972,0,0,1-.254.07,2.279,2.279,0,0,1-.287.016,1.1,1.1,0,0,1-.723-.238,1.442,1.442,0,0,1-.434-.637,2.6,2.6,0,0,1-.144-.886,1.824,1.824,0,0,1,.142-.72,1.246,1.246,0,0,1,.439-.544,1.439,1.439,0,0,1,1.2-.137.632.632,0,0,1,.321.268,1.149,1.149,0,0,1,.134.57.774.774,0,0,0,.153-.013,1.1,1.1,0,0,0,.131-.035c0-.157,0-.3.011-.439a2.759,2.759,0,0,1,.048-.391,2.523,2.523,0,0,0-.567-.182,3.525,3.525,0,0,0-.718-.07,2.082,2.082,0,0,0-.686.115,1.862,1.862,0,0,0-.6.34,1.6,1.6,0,0,0-.421.565,1.888,1.888,0,0,0-.155.79,2.175,2.175,0,0,0,.22,1.007,1.6,1.6,0,0,0,.619.664,1.777,1.777,0,0,0,.923.236,2.6,2.6,0,0,0,.815-.118,2.149,2.149,0,0,0,.589-.284.529.529,0,0,1-.056-.171,1.381,1.381,0,0,1-.013-.2v-.241A2.331,2.331,0,0,1,97,76.483a.2.2,0,0,1,.072-.145.355.355,0,0,1,.16-.037.4.4,0,0,0,.027-.123c0-.046.005-.086.005-.118q-.086.006-.273.008c-.125,0-.243,0-.353,0" transform="translate(-43.602 -34.43)" fill="#245086"/>
      <path id="Trazado_32" data-name="Trazado 32" d="M105.767,77.606a.377.377,0,0,1-.142-.059.45.45,0,0,1-.121-.15q-.059-.107-.15-.305l-1.275-2.924a.921.921,0,0,0-.11.005c-.03,0-.063.009-.1.016l-1.109,2.844q-.08.209-.141.329a.56.56,0,0,1-.126.174.371.371,0,0,1-.16.075.388.388,0,0,0-.03.11.894.894,0,0,0-.008.115l.193-.011c.078,0,.162-.005.251-.005.061,0,.123,0,.185,0l.179.005c.057,0,.106,0,.145.008a.829.829,0,0,0-.009-.123.384.384,0,0,0-.029-.107q-.219-.016-.265-.137a.726.726,0,0,1,.072-.437l.142-.371c.207-.006.434-.011.685-.014s.5,0,.733-.005l.234.546q.107.247.067.319t-.26.1a.4.4,0,0,0-.029.107,1,1,0,0,0-.008.123l.116,0,.163-.005.177-.005c.057,0,.108,0,.15,0s.126,0,.208,0l.236.005c.074,0,.13,0,.165.008,0-.043,0-.08,0-.112a.707.707,0,0,0-.027-.118M103.262,76.4l.368-.959q.048-.129.1-.27c.031-.085.065-.19.1-.308.044.114.082.212.114.289l.123.295.408.953Z" transform="translate(-47.508 -34.444)" fill="#245086"/>
      <path id="Trazado_33" data-name="Trazado 33" d="M114.092,74.214l-.164,0-.174-.005c-.056,0-.112,0-.165-.008a.77.77,0,0,0,0,.094c0,.031.011.076.021.137a.331.331,0,0,1,.225.07.4.4,0,0,1,.112.233,2.5,2.5,0,0,1,.033.458v1.772L111.9,74.2l-.163.011c-.063,0-.127.005-.2.005l-.137,0-.139-.005c-.045,0-.085,0-.121-.008,0,.028,0,.064.005.107a.611.611,0,0,0,.021.123.68.68,0,0,1,.2.04.393.393,0,0,1,.144.126l.021.028v2.211a2.751,2.751,0,0,1-.032.474.418.418,0,0,1-.112.244.336.336,0,0,1-.225.07.425.425,0,0,0-.021.1c0,.037-.005.079-.005.126.046,0,.1-.006.163-.008l.2-.005c.067,0,.126,0,.177,0s.11,0,.171,0l.185.005c.063,0,.121,0,.174.008a1.262,1.262,0,0,0-.005-.129.446.446,0,0,0-.021-.1.333.333,0,0,1-.224-.07.415.415,0,0,1-.112-.244,2.743,2.743,0,0,1-.032-.474V74.979l2.212,2.888a.988.988,0,0,0,.123-.008.488.488,0,0,0,.108-.024V75.189a2.781,2.781,0,0,1,.029-.458.438.438,0,0,1,.1-.233.251.251,0,0,1,.187-.07.606.606,0,0,0,.021-.118c0-.04.005-.077.005-.112l-.252.011c-.1,0-.182.005-.257.005" transform="translate(-51.618 -34.458)" fill="#245086"/>
      <path id="Trazado_34" data-name="Trazado 34" d="M121,74.616a.23.23,0,0,1,.115-.139.53.53,0,0,1,.222-.048.4.4,0,0,0,.021-.1c0-.039.006-.082.006-.129-.072,0-.142.006-.212.008l-.211.005-.225,0-.225,0-.216-.005c-.07,0-.139,0-.207-.008,0,.047,0,.089.006.129a.34.34,0,0,0,.021.1.523.523,0,0,1,.224.048.233.233,0,0,1,.112.139.926.926,0,0,1,.032.279v2.26a.933.933,0,0,1-.032.276.224.224,0,0,1-.112.139.612.612,0,0,1-.224.051.333.333,0,0,0-.021.1c0,.037-.006.081-.006.131.093-.008.2-.012.317-.013s.228,0,.332,0,.21,0,.321,0,.22.006.327.013c0-.05,0-.094-.006-.131a.393.393,0,0,0-.021-.1.624.624,0,0,1-.222-.051A.221.221,0,0,1,121,77.43a.933.933,0,0,1-.032-.276v-2.26a.926.926,0,0,1,.032-.279" transform="translate(-55.76 -34.458)" fill="#245086"/>
      <path id="Trazado_35" data-name="Trazado 35" d="M127.426,77.372a.454.454,0,0,1-.279.193,2.149,2.149,0,0,1-.517.048H125.8q.318-.5.626-.991.335-.541.664-1.1t.661-1.138a.321.321,0,0,0-.016-.1.193.193,0,0,0-.043-.075c-.125,0-.244.007-.356.008l-.332,0h-.661l-.383,0-.359-.005-.244,0a4.026,4.026,0,0,1-.027.45,2.566,2.566,0,0,1-.075.407.358.358,0,0,0,.145.043,1.315,1.315,0,0,0,.161.011,1.407,1.407,0,0,1,.147-.439.443.443,0,0,1,.236-.2,1.2,1.2,0,0,1,.383-.05h.758q-.224.387-.453.773-.246.415-.5.827l-.5.825q-.251.413-.509.825a.34.34,0,0,0,.011.091.43.43,0,0,0,.032.08c.11-.007.276-.012.5-.013l.7,0h.466l.445,0c.15,0,.312.006.487.013,0-.093.009-.189.016-.287s.018-.194.032-.287.03-.178.048-.257a.548.548,0,0,0-.279-.091,1.3,1.3,0,0,1-.153.439" transform="translate(-58.11 -34.463)" fill="#245086"/>
      <path id="Trazado_36" data-name="Trazado 36" d="M136.076,77.606a.377.377,0,0,1-.142-.059.45.45,0,0,1-.12-.15q-.059-.107-.15-.305l-1.275-2.924a.921.921,0,0,0-.11.005c-.03,0-.063.009-.1.016l-1.109,2.844q-.08.209-.141.329a.559.559,0,0,1-.126.174.371.371,0,0,1-.16.075.387.387,0,0,0-.03.11.893.893,0,0,0-.008.115l.193-.011c.078,0,.162-.005.251-.005.061,0,.123,0,.185,0l.179.005c.057,0,.106,0,.145.008a.831.831,0,0,0-.009-.123.385.385,0,0,0-.029-.107q-.219-.016-.265-.137a.726.726,0,0,1,.072-.437l.142-.371c.207-.006.434-.011.685-.014s.5,0,.733-.005l.233.546q.107.247.067.319t-.26.1a.4.4,0,0,0-.029.107,1,1,0,0,0-.008.123l.116,0,.163-.005.177-.005c.057,0,.108,0,.15,0s.126,0,.208,0l.236.005c.074,0,.13,0,.165.008,0-.043,0-.08,0-.112a.709.709,0,0,0-.027-.118M133.571,76.4l.368-.959q.048-.129.1-.27c.031-.085.065-.19.1-.308.044.114.082.212.114.289l.123.295.408.953Z" transform="translate(-61.584 -34.444)" fill="#245086"/>
      <path id="Trazado_37" data-name="Trazado 37" d="M143.274,74.2c-.1,0-.218.008-.365.011s-.306.005-.479.005h-1.061q-.254,0-.471-.005l-.366-.011c0,.122-.007.257-.021.407s-.036.3-.064.45a.352.352,0,0,0,.123.037.9.9,0,0,0,.134.011,1.921,1.921,0,0,1,.094-.343.46.46,0,0,1,.187-.228.736.736,0,0,1,.388-.083h.273v2.7a.868.868,0,0,1-.035.276.225.225,0,0,1-.129.139.818.818,0,0,1-.265.051.371.371,0,0,0-.021.1c0,.037-.006.081-.006.131q.1-.006.22-.008l.244-.005.238,0,.351,0c.119,0,.237.006.35.013,0-.05,0-.094,0-.131a.393.393,0,0,0-.021-.1.8.8,0,0,1-.263-.051.217.217,0,0,1-.123-.139.928.928,0,0,1-.033-.276v-2.7h.284a.567.567,0,0,1,.458.169.758.758,0,0,1,.147.485.546.546,0,0,0,.147-.008.476.476,0,0,0,.12-.04c-.014-.171-.024-.325-.029-.461s-.006-.268,0-.4" transform="translate(-65.225 -34.458)" fill="#245086"/>
      <path id="Trazado_38" data-name="Trazado 38" d="M148.777,74.616a.23.23,0,0,1,.115-.139.53.53,0,0,1,.222-.048.4.4,0,0,0,.021-.1c0-.039.006-.082.006-.129-.072,0-.142.006-.212.008l-.211.005-.225,0-.225,0-.216-.005c-.07,0-.139,0-.207-.008,0,.047,0,.089.006.129a.341.341,0,0,0,.021.1.523.523,0,0,1,.224.048.233.233,0,0,1,.112.139.926.926,0,0,1,.032.279v2.26a.933.933,0,0,1-.032.276.224.224,0,0,1-.112.139.612.612,0,0,1-.224.051.334.334,0,0,0-.021.1c0,.037-.006.081-.006.131.093-.008.2-.012.317-.013s.228,0,.332,0,.21,0,.321,0,.22.006.327.013c0-.05,0-.094-.006-.131a.393.393,0,0,0-.021-.1.624.624,0,0,1-.222-.051.221.221,0,0,1-.115-.139.933.933,0,0,1-.032-.276v-2.26a.926.926,0,0,1,.032-.279" transform="translate(-68.661 -34.458)" fill="#245086"/>
      <path id="Trazado_39" data-name="Trazado 39" d="M155.356,74.371a1.882,1.882,0,0,0-1.6-.1,1.687,1.687,0,0,0-.563.38,1.774,1.774,0,0,0-.377.584,1.972,1.972,0,0,0-.137.75,2.023,2.023,0,0,0,.222.953,1.677,1.677,0,0,0,1.546.916,1.771,1.771,0,0,0,.715-.142,1.689,1.689,0,0,0,.562-.4,1.781,1.781,0,0,0,.367-.594,2.066,2.066,0,0,0,.129-.736,1.963,1.963,0,0,0-.23-.967,1.683,1.683,0,0,0-.629-.648m.174,2.5a1.234,1.234,0,0,1-.383.53.937.937,0,0,1-.6.2,1.1,1.1,0,0,1-.568-.145,1.3,1.3,0,0,1-.415-.391,1.846,1.846,0,0,1-.254-.562,2.5,2.5,0,0,1-.086-.653,1.856,1.856,0,0,1,.145-.761,1.206,1.206,0,0,1,.393-.506.946.946,0,0,1,.566-.179,1.094,1.094,0,0,1,.685.23,1.567,1.567,0,0,1,.475.624,2.148,2.148,0,0,1,.174.876,1.977,1.977,0,0,1-.134.742" transform="translate(-70.905 -34.431)" fill="#245086"/>
      <path id="Trazado_40" data-name="Trazado 40" d="M164.64,74.214l-.163,0-.174-.005c-.057,0-.112,0-.165-.008a.764.764,0,0,0,0,.094c0,.031.011.076.021.137a.331.331,0,0,1,.225.07.4.4,0,0,1,.112.233,2.5,2.5,0,0,1,.033.458v1.772L162.449,74.2l-.163.011c-.063,0-.127.005-.2.005l-.137,0-.139-.005c-.045,0-.085,0-.121-.008,0,.028,0,.064.006.107a.609.609,0,0,0,.021.123.68.68,0,0,1,.2.04.393.393,0,0,1,.144.126l.021.028v2.211a2.755,2.755,0,0,1-.032.474.418.418,0,0,1-.113.244.336.336,0,0,1-.225.07.424.424,0,0,0-.021.1c0,.037-.006.079-.006.126.047,0,.1-.006.164-.008l.2-.005c.067,0,.126,0,.176,0s.111,0,.171,0l.185.005c.063,0,.121,0,.174.008a1.26,1.26,0,0,0-.005-.129.446.446,0,0,0-.021-.1.333.333,0,0,1-.224-.07.415.415,0,0,1-.112-.244,2.734,2.734,0,0,1-.033-.474V74.979l2.212,2.888a.987.987,0,0,0,.123-.008.488.488,0,0,0,.108-.024V75.189a2.779,2.779,0,0,1,.029-.458.438.438,0,0,1,.1-.233.251.251,0,0,1,.187-.07.6.6,0,0,0,.021-.118c0-.04.005-.077.005-.112l-.252.011c-.1,0-.182.005-.257.005" transform="translate(-75.093 -34.458)" fill="#245086"/>
      <path id="Trazado_41" data-name="Trazado 41" d="M170.982,77.037a.319.319,0,0,0-.236.091.293.293,0,0,0-.091.214.275.275,0,0,0,.08.2.3.3,0,0,0,.225.08.346.346,0,0,0,.22-.075.28.28,0,0,0,.1-.236.292.292,0,0,0-.078-.185.267.267,0,0,0-.217-.094" transform="translate(-79.255 -35.777)" fill="#245086"/>
      <path id="Trazado_42" data-name="Trazado 42" d="M64.454,29.995l0,.969h-.081c.005.139.016.273.027.411h4.1a11.349,11.349,0,1,1,22.516,0H95.3c.011-.112.021-.22.027-.332h.07c.005-.07.011-.145.011-.214h-.078l0-.968,0-.97h.08c0-.021-.005-.037-.005-.059h-.08a15.438,15.438,0,0,0-3.8-9.057l.08-.08c-.032-.037-.064-.07-.1-.107l-.059.059-.688-.682-.689-.682.055-.055h0c-.032-.032-.064-.059-.1-.086l-.075.075A15.481,15.481,0,0,0,80.858,14.5v-.091a.261.261,0,0,1-.064-.005h0v.084l-.97.005-.968,0v-.076c-.07,0-.139.005-.208.011l.005.075a15.48,15.48,0,0,0-9.062,3.8l-.011-.016c-.011.005-.016.016-.027.021h0l.059.059-.682.688-.682.689-.057-.057,0,0c-.054.059-.1.118-.155.177l.005.005c-.279.321-.536.648-.782.985a15.472,15.472,0,0,0-2.887,8.162v0h.082Zm25.6-8.5a.415.415,0,1,1,0,.587.415.415,0,0,1,0-.587" transform="translate(-29.893 -6.689)" fill="#245086"/>
      <path id="Trazado_43" data-name="Trazado 43" d="M67.829,18.083l.682-.689-.059-.058-.655-.649-.111.112a.27.27,0,0,0-.313-.284s.062-.063-.013-.262-.448-.024-.761-.234-1.9-2.631-2.691-3.337a1.083,1.083,0,1,0-1.514,1.527c.714.78,3.148,2.35,3.361,2.661s.04.686.24.759.262.011.262.011a.27.27,0,0,0,.288.31l-.112.113.656.651.057.056Z" transform="translate(-28.795 -5.711)" fill="#245086"/>
      <path id="Trazado_44" data-name="Trazado 44" d="M113.046,17.867l.688.682.059-.059.649-.654-.113-.111a.271.271,0,0,0,.285-.313s.063.063.262-.013.023-.448.232-.76,2.631-1.9,3.337-2.691a1.083,1.083,0,1,0-1.526-1.514c-.782.713-2.351,3.148-2.662,3.361s-.684.04-.759.239-.012.262-.012.262a.271.271,0,0,0-.311.288l-.112-.111-.653.658-.055.055Z" transform="translate(-52.18 -5.591)" fill="#245086"/>
      <path id="Trazado_45" data-name="Trazado 45" d="M92.265,7.8l.97-.005V7.714l0-.921h-.159a.269.269,0,0,0-.019-.422s.088,0,.176-.2-.3-.333-.373-.7.514-3.205.456-4.263a1.083,1.083,0,1,0-2.149.009c-.049,1.058.563,3.888.495,4.258s-.456.514-.367.707.176.193.176.193a.27.27,0,0,0-.014.423l-.16,0,0,.928v.076Z" transform="translate(-42.336 0)" fill="#245086"/>
      <path id="Trazado_46" data-name="Trazado 46" d="M122.17,42.306l0,.968h.078l.927,0v-.159a.27.27,0,0,0,.423-.019s0,.088.195.175.334-.3.7-.373,3.2.516,4.262.457a1.083,1.083,0,1,0-.009-2.149c-1.059-.048-3.888.563-4.259.494s-.513-.455-.705-.367-.194.178-.194.178a.27.27,0,0,0-.423-.017v-.158l-.924,0h-.081Z" transform="translate(-56.736 -19.133)" fill="#245086"/>
      <path id="Trazado_47" data-name="Trazado 47" d="M51.181,43.709c1.058.048,3.888-.563,4.258-.494s.512.456.706.367.192-.177.192-.177a.271.271,0,0,0,.425.016v.159l.924,0h.081l0-.969,0-.969h-.082l-.922,0V41.8a.272.272,0,0,0-.424.019s0-.087-.194-.175-.334.3-.7.373-3.205-.515-4.263-.457a1.083,1.083,0,1,0,.01,2.149" transform="translate(-23.202 -19.299)" fill="#245086"/>
      <path id="Trazado_48" data-name="Trazado 48" d="M93.905,26.393a.171.171,0,0,0-.171-.171h-1.7a.171.171,0,0,0-.171.171v2.08h2.046Z" transform="translate(-42.661 -12.178)" fill="#245086"/>
      <path id="Trazado_49" data-name="Trazado 49" d="M92.03,40.592h1.7a.172.172,0,0,0,.172-.171V34.247H91.859V40.42a.171.171,0,0,0,.171.171" transform="translate(-42.661 -15.905)" fill="#245086"/>
      <path id="Trazado_50" data-name="Trazado 50" d="M94.016,32.472a.23.23,0,0,0,.23-.23V30.656a.23.23,0,0,0-.23-.23h-6.7a.23.23,0,0,0-.23.23v1.586a.23.23,0,0,0,.23.23h6.7Z" transform="translate(-40.442 -14.13)" fill="#245086"/>
    </g>
  </g>
</svg>
