<svg xmlns="http://www.w3.org/2000/svg" xmlns:xlink="http://www.w3.org/1999/xlink" width="195" height="87.715" viewBox="0 0 195 87.715">
  <defs>
    <clipPath id="clip-path">
      <rect id="Rectángulo_106" data-name="Rectángulo 106" width="195" height="87.715" fill="#fafafa"/>
    </clipPath>
  </defs>
  <g id="Grupo_970" data-name="Grupo 970" transform="translate(0 0.001)">
    <g id="Grupo_4" data-name="Grupo 4" transform="translate(0 -0.001)" clip-path="url(#clip-path)">
      <path id="Trazado_10" data-name="Trazado 10" d="M5.36,69.473A1.8,1.8,0,0,1,4.213,69.1a2.039,2.039,0,0,1-.559-1.2,13.33,13.33,0,0,1-.161-2.347V56.807L14.185,70.833a6.539,6.539,0,0,0,.733-.04,3.432,3.432,0,0,0,.626-.12V57.661a13.871,13.871,0,0,1,.147-2.308,2.089,2.089,0,0,1,.493-1.146,1.419,1.419,0,0,1,.961-.36,4.141,4.141,0,0,0,.106-.64c.017-.213.027-.426.027-.639-.357.017-.778.036-1.267.053s-.929.027-1.32.027c-.25,0-.533,0-.854-.014l-.947-.026c-.31-.01-.6-.023-.867-.04a3.8,3.8,0,0,0,.04.546q.041.279.12.733a1.857,1.857,0,0,1,1.16.373,1.947,1.947,0,0,1,.573,1.146,12.438,12.438,0,0,1,.16,2.295v8.088L4.187,52.568c-.249.017-.552.036-.908.053s-.711.027-1.066.027q-.347,0-.761-.014l-.8-.026q-.386-.015-.652-.04,0,.266.026.626a3.537,3.537,0,0,0,.107.653,3.989,3.989,0,0,1,1.04.226,1.824,1.824,0,0,1,.693.6l.16.209v10.67A12.461,12.461,0,0,1,1.853,67.9a2.109,2.109,0,0,1-.573,1.2,1.8,1.8,0,0,1-1.147.373,2.929,2.929,0,0,0-.107.573Q0,70.353,0,70.753c.213-.017.484-.031.814-.04l1.04-.026q.547-.015.92-.014c.266,0,.56,0,.881.014l.973.026c.329.009.626.023.893.04,0-.266-.008-.5-.026-.706a2.056,2.056,0,0,0-.133-.573" transform="translate(0 4.303)" fill="#fafafa"/>
      <path id="Trazado_11" data-name="Trazado 11" d="M31.227,70.726q.133-.987.334-2.093a15.283,15.283,0,0,1,.493-2.013,2.561,2.561,0,0,0-.6-.4,3.857,3.857,0,0,0-.814-.266,8.3,8.3,0,0,1-.854,1.866,2.981,2.981,0,0,1-1.4,1.134,7.214,7.214,0,0,1-2.68.386h-.213a4.041,4.041,0,0,1-1.466-.213,1.2,1.2,0,0,1-.721-.774,5.15,5.15,0,0,1-.187-1.573V62.246h1.44a3.614,3.614,0,0,1,2.173.479,2.5,2.5,0,0,1,.706,1.814,5.4,5.4,0,0,0,.653.12,6.342,6.342,0,0,0,.733.04q-.026-.695-.04-1.52c-.01-.551-.014-1.085-.014-1.6q0-.746.014-1.507t.04-1.427a6.208,6.208,0,0,0-.721.041,3.212,3.212,0,0,0-.719.173,2,2,0,0,1-.626,1.679,4.028,4.028,0,0,1-2.2.427H23.12v-7.12H25.44a5.352,5.352,0,0,1,2.548.493,2.922,2.922,0,0,1,1.266,1.253,4.63,4.63,0,0,1,.454,1.613,3.791,3.791,0,0,0,.812-.079,1.5,1.5,0,0,0,.6-.267q-.133-.586-.239-1.347t-.187-1.559c-.053-.534-.1-1-.133-1.387q-.48,0-1.44.027t-2.454.039q-1.493.015-3.573.014H22.068q-.654,0-1.387-.014c-.489-.008-.951-.017-1.386-.026s-.8-.023-1.081-.04q0,.347.027.693a2.42,2.42,0,0,0,.107.586,2.869,2.869,0,0,1,1.12.267,1.163,1.163,0,0,1,.559.706,4.975,4.975,0,0,1,.16,1.453V66.779a6.245,6.245,0,0,1-.16,1.626,1.242,1.242,0,0,1-.559.788,2.692,2.692,0,0,1-1.12.279,2.015,2.015,0,0,0-.107.547q-.028.333-.027.732.506-.026,1.387-.039t1.933-.027q1.052-.013,2.052-.013h1.747q1.227,0,2.36.013t2.053.013q.92,0,1.48.027" transform="translate(1.491 4.303)" fill="#fafafa"/>
      <path id="Trazado_12" data-name="Trazado 12" d="M56.333,54.337a1.784,1.784,0,0,1,.788-.48,2.468,2.468,0,0,0,.173-.639,5.3,5.3,0,0,0,.04-.64q-.534.028-1.267.053t-1.347.027q-.721,0-1.413-.027c-.463-.017-.88-.035-1.253-.053a5.915,5.915,0,0,0,.039.626,2.827,2.827,0,0,0,.147.653,1.805,1.805,0,0,1,1.613,1,4.952,4.952,0,0,1-.306,2.814L50.93,66.025c-.438-1.258-.891-2.539-1.37-3.861q-.894-2.467-1.814-4.946t-1.8-4.773q-.427,0-.761.026a2.476,2.476,0,0,0-.572.107L40.052,65.919c-.226-.761-.459-1.538-.7-2.355q-.547-1.813-1.107-3.586t-1.067-3.293a9.028,9.028,0,0,1-.453-1.773.7.7,0,0,1,.346-.774,3.988,3.988,0,0,1,1.334-.28,3.877,3.877,0,0,0,.106-.666c.018-.23.027-.435.027-.613-.339.018-.724.031-1.16.04l-1.254.027c-.4.009-.742.013-1.027.013h-.733q-.412,0-.88-.013l-.88-.027c-.275-.009-.52-.022-.732-.04,0,.213.009.436.026.666a3.337,3.337,0,0,0,.107.64,1.828,1.828,0,0,1,.759.227,1.872,1.872,0,0,1,.573.812q.294.641.774,2.08,1.118,3.359,2.226,6.867t2.172,7.053c.143,0,.3,0,.467-.014a4.756,4.756,0,0,0,.506-.053,2.714,2.714,0,0,0,.414-.093l4.544-13.481c.523,1.351,1.046,2.734,1.575,4.161q.893,2.415,1.773,4.8t1.679,4.68a6.956,6.956,0,0,0,.721-.04,3.665,3.665,0,0,0,.64-.12l4.053-13.04q.48-1.439.8-2.239a3.66,3.66,0,0,1,.653-1.147" transform="translate(2.609 4.293)" fill="#fafafa"/>
      <path id="Trazado_13" data-name="Trazado 13" d="M79.462,70.753c0-.213-.01-.435-.027-.666a3.454,3.454,0,0,0-.107-.64,2.187,2.187,0,0,1-1.026-.359,1.772,1.772,0,0,1-.586-1,14.49,14.49,0,0,1-.36-2.08l-.907-9.386a2.985,2.985,0,0,1,.306-2.2,1.846,1.846,0,0,1,1.48-.572,3.5,3.5,0,0,0,.107-.627c.016-.222.026-.439.026-.653-.232.018-.475.031-.732.041l-.774.026q-.388.015-.759.014-.347,0-.762-.014l-.825-.026c-.276-.01-.53-.023-.761-.041L68.213,66.816l-6.4-14.249c-.214.018-.449.031-.708.041l-.785.026c-.266.01-.526.014-.774.014q-.347,0-.774-.014l-.827-.026c-.267-.01-.5-.023-.693-.041,0,.2.01.41.027.64a2.378,2.378,0,0,0,.133.64,2.334,2.334,0,0,1,1.16.239,1.2,1.2,0,0,1,.546.814,5.465,5.465,0,0,1,.054,1.586L58.344,65.5a13.273,13.273,0,0,1-.373,2.466,2.056,2.056,0,0,1-.666,1.121,2.356,2.356,0,0,1-1.121.386,2.443,2.443,0,0,0-.133.666c-.017.25-.027.454-.027.613.232-.017.512-.031.84-.04l1.015-.027q.519-.013.918-.013c.427,0,.911,0,1.454.013s1.018.031,1.427.067a5.661,5.661,0,0,0-.041-.613,4.268,4.268,0,0,0-.119-.666,2.373,2.373,0,0,1-1.2-.4,1.576,1.576,0,0,1-.533-1.107,10.954,10.954,0,0,1,.026-2.279l.822-8.2,6.111,13.423a5.3,5.3,0,0,0,.666-.04A2.425,2.425,0,0,0,68,70.727L73.427,57.5l.942,8.848a9.38,9.38,0,0,1,.067,1.853,1.149,1.149,0,0,1-.453.907,3.033,3.033,0,0,1-1.241.36,4.274,4.274,0,0,0-.119.64,5.536,5.536,0,0,0-.04.639c.283-.017.626-.031,1.027-.04l1.227-.027c.417-.009.8-.013,1.133-.013h.84q.467,0,.974.013l.947.027c.293.009.537.023.733.04" transform="translate(4.586 4.303)" fill="#fafafa"/>
      <path id="Trazado_14" data-name="Trazado 14" d="M96.618,70.759c0-.249-.008-.466-.026-.653a3.3,3.3,0,0,0-.133-.626,1.842,1.842,0,0,1-.706-.293,2.241,2.241,0,0,1-.613-.774q-.307-.56-.787-1.6L88.087,52.494q-.375,0-.64.026c-.177.018-.365.045-.56.08L81.339,66.626a17.361,17.361,0,0,1-.706,1.64,2.764,2.764,0,0,1-.626.867,1.641,1.641,0,0,1-.8.346,2.818,2.818,0,0,0-.147.626,5.641,5.641,0,0,0-.039.653c.248-.017.577-.036.986-.053s.835-.027,1.281-.027q.453,0,.933.013l.934.027c.3.009.551.023.746.04a5.547,5.547,0,0,0-.04-.693,2.411,2.411,0,0,0-.146-.586q-1.068-.107-1.281-.719a3.347,3.347,0,0,1,.32-2.027l.6-1.561c1.033-.045,2.136-.081,3.333-.1,1.255-.025,2.437-.037,3.56-.039L91.259,67.4q.508,1.175.32,1.547t-1.253.533a2.008,2.008,0,0,0-.147.573,6.094,6.094,0,0,0-.04.706q.242,0,.64-.013t.894-.027l.96-.027c.31-.009.573-.013.787-.013.285,0,.639,0,1.067.013l1.24.027c.4.009.7.023.893.04M83.9,63.746l1.679-4.373q.294-.8.574-1.614c.148-.431.308-.924.473-1.452.177.505.345.973.5,1.373q.294.759.721,1.719L89.7,63.746Z" transform="translate(6.468 4.297)" fill="#fafafa"/>
      <path id="Trazado_15" data-name="Trazado 15" d="M112.631,57.66a13.856,13.856,0,0,1,.147-2.307,2.1,2.1,0,0,1,.493-1.147,1.429,1.429,0,0,1,.96-.36,3.983,3.983,0,0,0,.107-.639c.017-.213.027-.427.027-.64-.357.018-.778.036-1.267.053s-.929.027-1.32.027c-.25,0-.533,0-.854-.013l-.947-.027c-.31-.009-.6-.022-.867-.04a3.791,3.791,0,0,0,.04.546q.041.281.12.733a1.873,1.873,0,0,1,1.16.373,1.946,1.946,0,0,1,.573,1.147,12.424,12.424,0,0,1,.16,2.294v8.088l-9.892-13.181q-.373.028-.908.053c-.355.018-.711.027-1.066.027q-.347,0-.761-.013l-.8-.027q-.386-.013-.652-.04c0,.179.009.386.026.626a3.536,3.536,0,0,0,.107.653,3.982,3.982,0,0,1,1.04.227,1.81,1.81,0,0,1,.693.6l.16.21V65.553a12.453,12.453,0,0,1-.173,2.347,2.106,2.106,0,0,1-.574,1.2,1.794,1.794,0,0,1-1.146.372,2.94,2.94,0,0,0-.107.574c-.017.2-.026.439-.026.706.213-.018.484-.031.814-.04s.675-.018,1.04-.027.671-.013.92-.013c.266,0,.56,0,.881.013l.973.027q.493.013.893.04c0-.267-.008-.5-.026-.706a2.064,2.064,0,0,0-.133-.574A1.8,1.8,0,0,1,101.3,69.1a2.043,2.043,0,0,1-.559-1.2,13.322,13.322,0,0,1-.161-2.347V56.807l10.693,14.026a6.537,6.537,0,0,0,.733-.04,3.627,3.627,0,0,0,.626-.12Z" transform="translate(7.947 4.303)" fill="#fafafa"/>
      <path id="Trazado_16" data-name="Trazado 16" d="M134.811,68.085a1.16,1.16,0,0,0-.333-.413,9.98,9.98,0,0,1-2.372,1.094,8.4,8.4,0,0,1-2.507.4,5.76,5.76,0,0,1-3.573-1.107,6.861,6.861,0,0,1-2.226-3,11.3,11.3,0,0,1-.761-4.24,10.511,10.511,0,0,1,.334-2.667,6.929,6.929,0,0,1,1.04-2.281,5.175,5.175,0,0,1,1.84-1.6,5.7,5.7,0,0,1,2.706-.6,4.794,4.794,0,0,1,1.96.373,2.7,2.7,0,0,1,1.32,1.36,7.036,7.036,0,0,1,.533,2.8,5.183,5.183,0,0,0,.852-.066,3.841,3.841,0,0,0,.748-.2q0-1.094.053-2.146a13.7,13.7,0,0,1,.24-1.987,14.625,14.625,0,0,0-2.853-1.04,12.78,12.78,0,0,0-3.04-.346,10.015,10.015,0,0,0-3.333.559,8.332,8.332,0,0,0-2.867,1.707,8.235,8.235,0,0,0-2.013,2.853,9.916,9.916,0,0,0-.746,4,10.421,10.421,0,0,0,1.107,4.893,8.095,8.095,0,0,0,7.479,4.493,10.031,10.031,0,0,0,3.587-.586,11.691,11.691,0,0,0,3.027-1.76,2.359,2.359,0,0,0-.2-.493" transform="translate(9.807 4.291)" fill="#fafafa"/>
      <path id="Trazado_17" data-name="Trazado 17" d="M149.144,68.633a15.284,15.284,0,0,1,.493-2.013,2,2,0,0,0-.587-.4,4.1,4.1,0,0,0-.827-.267,7.865,7.865,0,0,1-.92,1.986,2.848,2.848,0,0,1-1.334,1.08,6.225,6.225,0,0,1-2.225.32h-.213a3.936,3.936,0,0,1-1.454-.213,1.2,1.2,0,0,1-.708-.774,5.2,5.2,0,0,1-.185-1.573V56.353a5.411,5.411,0,0,1,.159-1.507,1.16,1.16,0,0,1,.573-.732,2.911,2.911,0,0,1,1.107-.267,2.38,2.38,0,0,0,.106-.573q.028-.333.027-.706-.532.028-1.107.04c-.382.009-.769.018-1.16.026s-.783.014-1.173.014q-.48,0-1.067-.014l-1.187-.026c-.4-.009-.8-.022-1.187-.04q0,.347.027.693a2.424,2.424,0,0,0,.106.586,2.865,2.865,0,0,1,1.121.267,1.163,1.163,0,0,1,.559.706,4.975,4.975,0,0,1,.16,1.453V66.779a5.812,5.812,0,0,1-.173,1.627,1.294,1.294,0,0,1-.573.787,2.692,2.692,0,0,1-1.12.279,2.015,2.015,0,0,0-.107.547c-.017.222-.027.466-.027.732q.508-.026,1.387-.039t1.933-.027q1.053-.013,2.053-.013h1.746q1.014,0,2.054.013t1.945.013q.907,0,1.44.027.133-.987.334-2.093" transform="translate(11.153 4.303)" fill="#fafafa"/>
      <path id="Trazado_18" data-name="Trazado 18" d="M164.026,67.127a18.036,18.036,0,0,0,.293-3.652v-6.24a11.366,11.366,0,0,1,.133-1.986,1.744,1.744,0,0,1,.48-1.014,1.792,1.792,0,0,1,.987-.386q.08-.454.107-.746c.016-.2.026-.374.026-.534q-.506.028-1.227.054c-.479.017-.934.027-1.36.027-.267,0-.559,0-.88-.014l-.921-.026c-.293-.01-.555-.023-.786-.041a4.452,4.452,0,0,0,.04.587c.027.2.066.426.12.693a2.152,2.152,0,0,1,1.161.4,1.688,1.688,0,0,1,.519,1.027,11.591,11.591,0,0,1,.133,2.013v6.32a18.166,18.166,0,0,1-.119,2.307,6.156,6.156,0,0,1-.348,1.453,3.141,3.141,0,0,1-.626.987,3,3,0,0,1-1.306.8,4.835,4.835,0,0,1-1.413.239,4.318,4.318,0,0,1-2.587-.679,3.632,3.632,0,0,1-1.321-1.893,9,9,0,0,1-.386-2.734V56.3a6.176,6.176,0,0,1,.134-1.52.984.984,0,0,1,.519-.666,3.655,3.655,0,0,1,1.161-.266,3.5,3.5,0,0,0,.106-.627c.017-.222.027-.439.027-.653-.2.018-.437.031-.721.041l-.894.026q-.467.015-.96.014h-.893q-.88,0-1.76-.027t-1.414-.054c0,.214.01.432.027.653a3.311,3.311,0,0,0,.107.627,3.707,3.707,0,0,1,1.014.279.94.94,0,0,1,.465.667,6.9,6.9,0,0,1,.121,1.506v8.186a9.079,9.079,0,0,0,.612,3.533,4.18,4.18,0,0,0,2.053,2.172,8.934,8.934,0,0,0,3.947.721,7.9,7.9,0,0,0,2.507-.373,4.924,4.924,0,0,0,1.893-1.12,4.532,4.532,0,0,0,1.227-2.294" transform="translate(12.283 4.303)" fill="#fafafa"/>
      <path id="Trazado_19" data-name="Trazado 19" d="M180.631,62.861a4.122,4.122,0,0,0-1.867-1.427,8.435,8.435,0,0,0-2.667-.547,4.623,4.623,0,0,0,2.881-1.492,4.256,4.256,0,0,0,1.04-2.881,3.441,3.441,0,0,0-.761-2.373,4.093,4.093,0,0,0-2.092-1.2,12.345,12.345,0,0,0-3.094-.347q-.639,0-1.359.014l-1.44.026q-.721.015-1.387.014c-.462,0-.952-.01-1.467-.027s-.951-.036-1.306-.054q0,.347.026.695a2.421,2.421,0,0,0,.107.586,2.885,2.885,0,0,1,1.12.266,1.172,1.172,0,0,1,.56.706,5.033,5.033,0,0,1,.159,1.454V66.78a5.808,5.808,0,0,1-.173,1.626,1.29,1.29,0,0,1-.572.787,2.708,2.708,0,0,1-1.121.28,2.01,2.01,0,0,0-.106.546q-.028.334-.028.733.587-.026,1.521-.04l2.013-.026q1.079-.015,2.133-.014h1.853a9.225,9.225,0,0,0,3.88-.692,4.654,4.654,0,0,0,2.16-1.893,5.315,5.315,0,0,0,.679-2.667,4.281,4.281,0,0,0-.693-2.56m-7.493-8.96a5.131,5.131,0,0,1,1.72.307,3.166,3.166,0,0,1,1.453,1.053,3.246,3.246,0,0,1,.586,2.053,3.9,3.9,0,0,1-.347,1.64,2.646,2.646,0,0,1-1.213,1.227,5.3,5.3,0,0,1-2.467.466h-.853V54.052c.138-.034.3-.079.413-.1a4.451,4.451,0,0,1,.706-.053m3.973,14.533a3.481,3.481,0,0,1-2.693.96,4.8,4.8,0,0,1-1.44-.173,1.158,1.158,0,0,1-.746-.733,4.873,4.873,0,0,1-.213-1.653V61.927h.639a11.363,11.363,0,0,1,1.906.16,6.017,6.017,0,0,1,1.734.559,2.985,2.985,0,0,1,1.24,1.174,3.86,3.86,0,0,1,.452,1.973,3.756,3.756,0,0,1-.88,2.64" transform="translate(13.677 4.303)" fill="#fafafa"/>
      <path id="Trazado_20" data-name="Trazado 20" d="M9.317,77.037a.645.645,0,0,0-.476.184.591.591,0,0,0-.184.433.556.556,0,0,0,.162.411.614.614,0,0,0,.454.162.7.7,0,0,0,.444-.151.565.565,0,0,0,.195-.476.589.589,0,0,0-.157-.373.539.539,0,0,0-.438-.189" transform="translate(0.709 6.306)" fill="#fafafa"/>
      <path id="Trazado_21" data-name="Trazado 21" d="M18.417,80.348a4.176,4.176,0,0,1-1,.465,3.453,3.453,0,0,1-1.059.173,2.431,2.431,0,0,1-1.483-.454,2.906,2.906,0,0,1-.947-1.239,4.47,4.47,0,0,1-.329-1.747,4.139,4.139,0,0,1,.146-1.1A2.812,2.812,0,0,1,14.2,75.5a2.227,2.227,0,0,1,.8-.665,2.54,2.54,0,0,1,1.167-.249,2.121,2.121,0,0,1,.833.151,1.12,1.12,0,0,1,.563.563,2.876,2.876,0,0,1,.227,1.179,1.9,1.9,0,0,0,.3-.022,1.4,1.4,0,0,0,.27-.076c0-.3.008-.586.023-.871a5.3,5.3,0,0,1,.1-.806,6.294,6.294,0,0,0-1.159-.422,5.1,5.1,0,0,0-1.243-.141,3.991,3.991,0,0,0-1.337.227,3.4,3.4,0,0,0-1.158.692,3.349,3.349,0,0,0-.817,1.158,4.029,4.029,0,0,0-.3,1.623,4.274,4.274,0,0,0,.444,1.985,3.363,3.363,0,0,0,1.217,1.342,3.3,3.3,0,0,0,1.781.481,4.127,4.127,0,0,0,1.444-.233,4.826,4.826,0,0,0,1.26-.73.518.518,0,0,0-.071-.179.568.568,0,0,0-.124-.157" transform="translate(1.02 6.069)" fill="#fafafa"/>
      <path id="Trazado_22" data-name="Trazado 22" d="M27.209,81.114a.761.761,0,0,1-.288-.119.908.908,0,0,1-.243-.3q-.118-.216-.3-.617L23.8,74.168a1.863,1.863,0,0,0-.222.011c-.061.008-.128.017-.2.032l-2.241,5.745q-.162.422-.286.665a1.13,1.13,0,0,1-.255.352.748.748,0,0,1-.323.151.783.783,0,0,0-.061.222,1.8,1.8,0,0,0-.016.233c.1-.008.23-.014.391-.022s.327-.011.507-.011c.123,0,.248,0,.373.005l.362.011c.115,0,.213.009.293.016a1.674,1.674,0,0,0-.017-.249.775.775,0,0,0-.06-.216q-.443-.032-.536-.276a1.467,1.467,0,0,1,.146-.882l.288-.75c.419-.013.876-.023,1.384-.029.527-.008,1.017-.01,1.481-.011l.472,1.1q.216.5.135.644t-.525.2a.814.814,0,0,0-.06.216,2.03,2.03,0,0,0-.016.249c.058,0,.135,0,.234-.005s.207-.008.329-.011l.357-.011c.116,0,.217-.005.3-.005.115,0,.255,0,.421.005l.477.011c.15,0,.263.009.334.016,0-.087,0-.162-.01-.227a1.426,1.426,0,0,0-.054-.238m-5.061-2.434.743-1.937q.1-.26.2-.546c.062-.172.132-.383.208-.622.089.23.167.428.23.584q.109.26.249.6l.824,1.926Z" transform="translate(1.653 6.072)" fill="#fafafa"/>
      <path id="Trazado_23" data-name="Trazado 23" d="M33.749,74.2c-.2.008-.44.015-.737.022s-.618.011-.967.011H29.9q-.513,0-.952-.011c-.291-.006-.539-.014-.74-.022,0,.246-.015.519-.043.822s-.072.606-.13.909a.711.711,0,0,0,.249.076,1.818,1.818,0,0,0,.27.022,3.881,3.881,0,0,1,.189-.692.929.929,0,0,1,.379-.46,1.486,1.486,0,0,1,.784-.168h.552V80.17a1.754,1.754,0,0,1-.07.557.455.455,0,0,1-.261.281,1.652,1.652,0,0,1-.534.1.75.75,0,0,0-.043.2c-.008.076-.012.164-.012.265q.206-.011.445-.016l.492-.011c.169,0,.329-.005.481-.005.23,0,.467,0,.709.005s.478.013.708.027c0-.1,0-.189-.01-.265a.794.794,0,0,0-.043-.2,1.611,1.611,0,0,1-.531-.1.438.438,0,0,1-.248-.281,1.874,1.874,0,0,1-.066-.557V74.706h.574a1.146,1.146,0,0,1,.925.341,1.531,1.531,0,0,1,.3.979,1.105,1.105,0,0,0,.3-.016.961.961,0,0,0,.243-.081c-.029-.346-.049-.656-.06-.93s-.013-.541-.005-.8" transform="translate(2.295 6.074)" fill="#fafafa"/>
      <path id="Trazado_24" data-name="Trazado 24" d="M41.636,75.042a.465.465,0,0,1,.233-.281,1.068,1.068,0,0,1,.449-.1.807.807,0,0,0,.043-.206c.008-.079.011-.166.011-.26-.144.008-.287.012-.427.016l-.427.011c-.144,0-.3.005-.454.005s-.3,0-.454-.005l-.438-.011c-.141,0-.279-.009-.417-.016,0,.094,0,.181.011.26a.763.763,0,0,0,.043.206,1.05,1.05,0,0,1,.453.1.469.469,0,0,1,.228.281,1.907,1.907,0,0,1,.065.563v1.958h-3.3V75.6a1.871,1.871,0,0,1,.065-.563.464.464,0,0,1,.233-.281,1.071,1.071,0,0,1,.449-.1.807.807,0,0,0,.043-.206c.008-.079.011-.166.011-.26-.144.008-.287.012-.427.016l-.427.011c-.144,0-.3.005-.455.005s-.3,0-.453-.005l-.438-.011c-.141,0-.28-.009-.417-.016,0,.094,0,.181.011.26a.763.763,0,0,0,.043.206,1.059,1.059,0,0,1,.454.1.471.471,0,0,1,.227.281,1.871,1.871,0,0,1,.065.563V80.17a1.885,1.885,0,0,1-.065.557.453.453,0,0,1-.227.281,1.237,1.237,0,0,1-.454.1.749.749,0,0,0-.043.2c-.008.076-.011.163-.011.265.187-.015.4-.024.638-.027s.461-.005.67-.005.426,0,.65.005.444.012.66.027c0-.1,0-.189-.011-.265a.794.794,0,0,0-.043-.2,1.261,1.261,0,0,1-.449-.1.447.447,0,0,1-.233-.281,1.885,1.885,0,0,1-.065-.557v-2.08c.2-.013.433-.025.708-.035q.451-.016.942-.022t.947-.005h.7V80.17a1.922,1.922,0,0,1-.065.557.451.451,0,0,1-.228.281,1.225,1.225,0,0,1-.453.1.749.749,0,0,0-.043.2c-.006.076-.011.163-.011.265.188-.015.4-.024.638-.027s.461-.005.671-.005.425,0,.649.005.442.012.66.027c0-.1,0-.189-.011-.265a.794.794,0,0,0-.043-.2,1.255,1.255,0,0,1-.449-.1.447.447,0,0,1-.233-.281,1.885,1.885,0,0,1-.065-.557V75.6a1.871,1.871,0,0,1,.065-.563" transform="translate(2.901 6.074)" fill="#fafafa"/>
      <path id="Trazado_25" data-name="Trazado 25" d="M49.673,74.609a3.8,3.8,0,0,0-3.24-.2,3.408,3.408,0,0,0-1.137.768,3.583,3.583,0,0,0-.762,1.179,3.983,3.983,0,0,0-.277,1.515,4.087,4.087,0,0,0,.449,1.926,3.388,3.388,0,0,0,3.122,1.85,3.578,3.578,0,0,0,1.444-.287,3.411,3.411,0,0,0,1.135-.8,3.6,3.6,0,0,0,.741-1.2,4.174,4.174,0,0,0,.26-1.488,3.964,3.964,0,0,0-.464-1.953,3.4,3.4,0,0,0-1.271-1.309m.351,5.041a2.493,2.493,0,0,1-.774,1.071,1.893,1.893,0,0,1-1.206.395,2.227,2.227,0,0,1-1.147-.292,2.615,2.615,0,0,1-.838-.79,3.729,3.729,0,0,1-.514-1.136,5.049,5.049,0,0,1-.173-1.32,3.749,3.749,0,0,1,.293-1.536,2.435,2.435,0,0,1,.794-1.022,1.911,1.911,0,0,1,1.142-.362,2.209,2.209,0,0,1,1.384.465,3.164,3.164,0,0,1,.959,1.26,4.339,4.339,0,0,1,.351,1.769,3.993,3.993,0,0,1-.27,1.5" transform="translate(3.623 6.069)" fill="#fafafa"/>
      <path id="Trazado_26" data-name="Trazado 26" d="M58.037,79.694a3.333,3.333,0,0,1-.383.8,1.163,1.163,0,0,1-.558.433,2.8,2.8,0,0,1-.952.13h-.065a1.685,1.685,0,0,1-.611-.087.488.488,0,0,1-.287-.3,1.939,1.939,0,0,1-.076-.617V75.637a2.039,2.039,0,0,1,.065-.584.469.469,0,0,1,.233-.292,1.071,1.071,0,0,1,.449-.1.806.806,0,0,0,.044-.206c.005-.079.01-.166.01-.26-.145.008-.287.013-.427.016l-.427.011c-.145,0-.3.005-.454.005-.1,0-.227,0-.379-.005l-.471-.011c-.162,0-.316-.009-.46-.016,0,.087,0,.172.011.254a.822.822,0,0,0,.043.211,1.059,1.059,0,0,1,.454.1.471.471,0,0,1,.227.281,1.871,1.871,0,0,1,.065.563v4.446a2.26,2.26,0,0,1-.07.644.5.5,0,0,1-.233.308,1.166,1.166,0,0,1-.454.108.749.749,0,0,0-.043.2c-.006.076-.011.163-.011.265.137-.008.32-.013.552-.016l.752-.011c.27,0,.538-.005.8-.005h.7c.267,0,.536,0,.806.005s.519.005.746.005.409,0,.546.011q.054-.378.135-.811a6.36,6.36,0,0,1,.2-.8.944.944,0,0,0-.206-.157,1.255,1.255,0,0,0-.27-.1" transform="translate(4.361 6.074)" fill="#fafafa"/>
      <path id="Trazado_27" data-name="Trazado 27" d="M62.258,75.042a.464.464,0,0,1,.233-.281,1.071,1.071,0,0,1,.449-.1.807.807,0,0,0,.043-.206c.008-.079.012-.166.012-.26-.145.008-.288.012-.428.016l-.426.011c-.145,0-.3.005-.455.005s-.3,0-.454-.005l-.437-.011c-.141,0-.28-.009-.418-.016,0,.094,0,.181.012.26a.689.689,0,0,0,.043.206,1.058,1.058,0,0,1,.453.1.471.471,0,0,1,.227.281,1.871,1.871,0,0,1,.065.563V80.17a1.885,1.885,0,0,1-.065.557.453.453,0,0,1-.227.281,1.236,1.236,0,0,1-.453.1.674.674,0,0,0-.043.2c-.008.076-.012.163-.012.265.188-.015.4-.024.639-.027s.46-.005.67-.005.425,0,.649.005.444.012.661.027c0-.1,0-.189-.012-.265a.794.794,0,0,0-.043-.2,1.261,1.261,0,0,1-.449-.1.447.447,0,0,1-.233-.281,1.885,1.885,0,0,1-.065-.557V75.6a1.871,1.871,0,0,1,.065-.563" transform="translate(4.942 6.074)" fill="#fafafa"/>
      <path id="Trazado_28" data-name="Trazado 28" d="M71.156,80.348a4.176,4.176,0,0,1-1,.465,3.453,3.453,0,0,1-1.059.173,2.431,2.431,0,0,1-1.483-.454,2.906,2.906,0,0,1-.947-1.239,4.47,4.47,0,0,1-.329-1.747,4.14,4.14,0,0,1,.146-1.1,2.812,2.812,0,0,1,.453-.947,2.228,2.228,0,0,1,.8-.665,2.54,2.54,0,0,1,1.167-.249,2.121,2.121,0,0,1,.833.151,1.12,1.12,0,0,1,.563.563,2.876,2.876,0,0,1,.227,1.179,1.9,1.9,0,0,0,.3-.022,1.4,1.4,0,0,0,.27-.076c0-.3.008-.586.023-.871a5.3,5.3,0,0,1,.1-.806,6.293,6.293,0,0,0-1.159-.422,5.1,5.1,0,0,0-1.243-.141,3.991,3.991,0,0,0-1.337.227,3.4,3.4,0,0,0-1.158.692,3.349,3.349,0,0,0-.817,1.158,4.029,4.029,0,0,0-.3,1.623,4.274,4.274,0,0,0,.444,1.985,3.363,3.363,0,0,0,1.217,1.342,3.3,3.3,0,0,0,1.781.481,4.127,4.127,0,0,0,1.444-.233,4.826,4.826,0,0,0,1.26-.73.518.518,0,0,0-.071-.179.567.567,0,0,0-.124-.157" transform="translate(5.337 6.069)" fill="#fafafa"/>
      <path id="Trazado_29" data-name="Trazado 29" d="M82.152,74.609a3.8,3.8,0,0,0-3.24-.2,3.408,3.408,0,0,0-1.137.768,3.583,3.583,0,0,0-.762,1.179,3.983,3.983,0,0,0-.277,1.515,4.087,4.087,0,0,0,.449,1.926,3.388,3.388,0,0,0,3.122,1.85,3.578,3.578,0,0,0,1.444-.287,3.411,3.411,0,0,0,1.135-.8,3.6,3.6,0,0,0,.741-1.2,4.174,4.174,0,0,0,.26-1.488,3.964,3.964,0,0,0-.464-1.953,3.4,3.4,0,0,0-1.271-1.309M82.5,79.65a2.492,2.492,0,0,1-.774,1.071,1.893,1.893,0,0,1-1.206.395,2.227,2.227,0,0,1-1.147-.292,2.614,2.614,0,0,1-.838-.79,3.729,3.729,0,0,1-.514-1.136,5.049,5.049,0,0,1-.173-1.32,3.75,3.75,0,0,1,.293-1.536,2.436,2.436,0,0,1,.794-1.022,1.911,1.911,0,0,1,1.142-.362,2.209,2.209,0,0,1,1.384.465,3.164,3.164,0,0,1,.959,1.26,4.339,4.339,0,0,1,.351,1.769,3.993,3.993,0,0,1-.27,1.5" transform="translate(6.281 6.069)" fill="#fafafa"/>
      <path id="Trazado_30" data-name="Trazado 30" d="M91.4,80.467a6.387,6.387,0,0,1-.574-.752c-.158-.253-.3-.467-.415-.644s-.232-.33-.336-.46a3.445,3.445,0,0,0-.335-.362c-.091-.085-.208-.177-.327-.269a3.281,3.281,0,0,0,.9-.369,1.956,1.956,0,0,0,.67-.682,1.851,1.851,0,0,0,.234-.936,1.722,1.722,0,0,0-.245-.9,1.646,1.646,0,0,0-.789-.644,3.765,3.765,0,0,0-1.478-.238c-.1,0-.245,0-.433.005l-.616.011c-.224,0-.441.005-.65.005-.144,0-.3,0-.471-.005l-.464-.011c-.142,0-.248-.005-.32-.005a2.289,2.289,0,0,0,.012.238.96.96,0,0,0,.043.216.975.975,0,0,1,.454.087.477.477,0,0,1,.227.287,1.932,1.932,0,0,1,.064.568v4.565a1.891,1.891,0,0,1-.064.557.457.457,0,0,1-.227.281,1.248,1.248,0,0,1-.454.1.972.972,0,0,0-.043.227c-.008.079-.012.158-.012.238.166-.015.378-.024.633-.027s.478-.005.665-.005h.357c.145,0,.3,0,.472.005s.332.012.492.027c0-.08,0-.16-.012-.243a.927.927,0,0,0-.043-.222,1.261,1.261,0,0,1-.449-.1.447.447,0,0,1-.233-.281,1.89,1.89,0,0,1-.064-.557V78.212c.122.005.246.01.378.01s.262,0,.4-.009a7.339,7.339,0,0,1,.563.528,5.385,5.385,0,0,1,.48.59c.133.191.273.4.417.633q.336.529.579.887t.568.79a6.855,6.855,0,0,1,.85-.081q.448-.016.849-.016a1.1,1.1,0,0,0,.037-.227c0-.072.007-.151.007-.238a1.907,1.907,0,0,1-.719-.168,1.855,1.855,0,0,1-.579-.444M88.05,77.746c-.093,0-.184,0-.27-.011-.063-.005-.134-.015-.2-.024V74.772a2.885,2.885,0,0,1,.357-.066,3.863,3.863,0,0,1,.444-.022,1.909,1.909,0,0,1,1.378.406,1.414,1.414,0,0,1,.406,1.044,1.445,1.445,0,0,1-.281.92,1.622,1.622,0,0,1-.757.525,3.216,3.216,0,0,1-1.071.168" transform="translate(7.02 6.075)" fill="#fafafa"/>
      <path id="Trazado_31" data-name="Trazado 31" d="M99.447,78.042c-.224,0-.466,0-.725-.011s-.459-.014-.6-.022a2.361,2.361,0,0,0,.017.27.923.923,0,0,0,.049.227,2.334,2.334,0,0,1,.61.076.385.385,0,0,1,.261.287,3.063,3.063,0,0,1,.059.719v.541a1.23,1.23,0,0,1-.092.568.607.607,0,0,1-.277.243,1.965,1.965,0,0,1-.513.141,4.6,4.6,0,0,1-.579.032,2.216,2.216,0,0,1-1.46-.481,2.914,2.914,0,0,1-.877-1.287,5.25,5.25,0,0,1-.291-1.79A3.684,3.684,0,0,1,95.32,76.1a2.517,2.517,0,0,1,.887-1.1,2.906,2.906,0,0,1,2.418-.276,1.277,1.277,0,0,1,.649.541,2.321,2.321,0,0,1,.27,1.152,1.564,1.564,0,0,0,.308-.027,2.219,2.219,0,0,0,.265-.07c0-.317.006-.612.022-.887a5.572,5.572,0,0,1,.1-.79,5.1,5.1,0,0,0-1.146-.368,7.119,7.119,0,0,0-1.45-.141,4.205,4.205,0,0,0-1.385.233,3.761,3.761,0,0,0-1.206.687A3.235,3.235,0,0,0,94.2,76.2a3.815,3.815,0,0,0-.314,1.6,4.394,4.394,0,0,0,.445,2.034,3.222,3.222,0,0,0,1.25,1.341,3.589,3.589,0,0,0,1.865.476,5.253,5.253,0,0,0,1.646-.238,4.341,4.341,0,0,0,1.19-.573,1.068,1.068,0,0,1-.114-.346,2.789,2.789,0,0,1-.027-.411V79.59a4.708,4.708,0,0,1,.038-.714.4.4,0,0,1,.146-.292.717.717,0,0,1,.323-.076.8.8,0,0,0,.055-.249c.006-.093.011-.173.011-.238q-.174.011-.552.016c-.252,0-.491.005-.714.005" transform="translate(7.685 6.069)" fill="#fafafa"/>
      <path id="Trazado_32" data-name="Trazado 32" d="M109.308,81.114a.761.761,0,0,1-.288-.119.908.908,0,0,1-.243-.3q-.118-.216-.3-.617L105.9,74.168a1.863,1.863,0,0,0-.222.011c-.061.008-.128.017-.2.032l-2.241,5.745q-.162.422-.286.665a1.13,1.13,0,0,1-.255.352.748.748,0,0,1-.323.151.783.783,0,0,0-.061.222,1.806,1.806,0,0,0-.016.233c.1-.008.23-.014.391-.022s.327-.011.507-.011c.123,0,.248,0,.373.005l.362.011c.115,0,.213.009.293.016a1.674,1.674,0,0,0-.017-.249.775.775,0,0,0-.059-.216q-.443-.032-.536-.276a1.467,1.467,0,0,1,.146-.882l.288-.75c.419-.013.876-.023,1.384-.029.527-.008,1.017-.01,1.481-.011l.472,1.1q.216.5.135.644t-.525.2a.813.813,0,0,0-.06.216,2.03,2.03,0,0,0-.016.249c.058,0,.135,0,.234-.005s.207-.008.329-.011l.357-.011c.116,0,.217-.005.3-.005.115,0,.255,0,.421.005l.477.011c.15,0,.263.009.334.016,0-.087,0-.162-.01-.227a1.427,1.427,0,0,0-.054-.238m-5.061-2.434.743-1.937q.1-.26.2-.546c.062-.172.132-.383.208-.622.089.23.167.428.23.584q.109.26.249.6l.824,1.926Z" transform="translate(8.373 6.072)" fill="#fafafa"/>
      <path id="Trazado_33" data-name="Trazado 33" d="M117.1,74.23c-.1,0-.211,0-.331-.005l-.352-.011c-.114,0-.227-.009-.334-.016a1.555,1.555,0,0,0,.01.189c.008.062.023.154.043.276a.668.668,0,0,1,.454.141.809.809,0,0,1,.227.471,5.047,5.047,0,0,1,.066.925v3.579L112.67,74.2c-.094.008-.2.014-.33.022s-.257.011-.395.011c-.087,0-.179,0-.276-.005l-.28-.011c-.091,0-.172-.009-.243-.016,0,.057,0,.13.011.216a1.234,1.234,0,0,0,.043.249,1.373,1.373,0,0,1,.411.081A.794.794,0,0,1,111.9,75l.043.056v4.466a5.558,5.558,0,0,1-.064.957.845.845,0,0,1-.227.492.68.68,0,0,1-.454.141.859.859,0,0,0-.043.211c-.008.076-.011.16-.011.254.093-.008.2-.013.33-.016l.395-.011c.136,0,.255-.005.357-.005s.223,0,.345.005l.373.011c.127,0,.245.009.352.016a2.544,2.544,0,0,0-.011-.26.9.9,0,0,0-.043-.206.673.673,0,0,1-.453-.141.838.838,0,0,1-.227-.492,5.54,5.54,0,0,1-.065-.957V75.775l4.468,5.833a2,2,0,0,0,.248-.016.986.986,0,0,0,.217-.049V76.2a5.617,5.617,0,0,1,.058-.925.884.884,0,0,1,.2-.471.508.508,0,0,1,.378-.141,1.224,1.224,0,0,0,.043-.238c.008-.08.011-.155.011-.227-.144.008-.314.014-.508.022s-.367.011-.518.011" transform="translate(9.098 6.074)" fill="#fafafa"/>
      <path id="Trazado_34" data-name="Trazado 34" d="M121.948,75.042a.465.465,0,0,1,.233-.281,1.071,1.071,0,0,1,.449-.1.807.807,0,0,0,.043-.206c.008-.079.012-.166.012-.26-.145.008-.288.012-.428.016l-.426.011c-.145,0-.3.005-.455.005s-.3,0-.454-.005l-.437-.011c-.141,0-.28-.009-.418-.016,0,.094,0,.181.012.26a.689.689,0,0,0,.043.206,1.058,1.058,0,0,1,.453.1.471.471,0,0,1,.227.281,1.871,1.871,0,0,1,.065.563V80.17a1.885,1.885,0,0,1-.065.557.453.453,0,0,1-.227.281,1.236,1.236,0,0,1-.453.1.674.674,0,0,0-.043.2c-.008.076-.012.163-.012.265.188-.015.4-.024.639-.027s.46-.005.67-.005.425,0,.649.005.444.012.661.027c0-.1,0-.189-.012-.265a.794.794,0,0,0-.043-.2,1.261,1.261,0,0,1-.449-.1.447.447,0,0,1-.233-.281,1.885,1.885,0,0,1-.065-.557V75.6a1.871,1.871,0,0,1,.065-.563" transform="translate(9.828 6.074)" fill="#fafafa"/>
      <path id="Trazado_35" data-name="Trazado 35" d="M129.773,80.6a.917.917,0,0,1-.563.389,4.341,4.341,0,0,1-1.044.1H126.5q.643-1,1.264-2,.677-1.092,1.342-2.223t1.336-2.3a.648.648,0,0,0-.033-.206.39.39,0,0,0-.087-.151c-.253.008-.492.014-.719.016s-.451.005-.671.005h-1.336q-.378,0-.774-.005c-.264,0-.5-.006-.725-.011s-.384-.005-.492-.005a8.133,8.133,0,0,1-.054.909,5.183,5.183,0,0,1-.151.822.724.724,0,0,0,.292.087,2.655,2.655,0,0,0,.325.022,2.842,2.842,0,0,1,.3-.887.894.894,0,0,1,.476-.395,2.426,2.426,0,0,1,.774-.1h1.531q-.453.782-.914,1.562-.5.839-1.006,1.671t-1.017,1.666q-.508.834-1.028,1.666a.686.686,0,0,0,.022.184.87.87,0,0,0,.065.162c.223-.014.557-.024,1-.027s.914-.005,1.412-.005h.941q.443,0,.9.005c.3,0,.631.013.985.027.008-.187.018-.381.032-.579s.036-.392.065-.579.061-.36.1-.519a1.106,1.106,0,0,0-.563-.184,2.633,2.633,0,0,1-.308.887" transform="translate(10.242 6.075)" fill="#fafafa"/>
      <path id="Trazado_36" data-name="Trazado 36" d="M139.617,81.114a.761.761,0,0,1-.288-.119.908.908,0,0,1-.243-.3q-.118-.216-.3-.617l-2.575-5.907a1.863,1.863,0,0,0-.222.011c-.061.008-.128.017-.2.032l-2.241,5.745q-.162.422-.286.665a1.13,1.13,0,0,1-.255.352.749.749,0,0,1-.324.151.783.783,0,0,0-.061.222,1.8,1.8,0,0,0-.016.233c.1-.008.23-.014.391-.022s.327-.011.507-.011c.123,0,.248,0,.373.005l.362.011c.115,0,.213.009.293.016a1.676,1.676,0,0,0-.017-.249.775.775,0,0,0-.06-.216q-.443-.032-.535-.276a1.467,1.467,0,0,1,.146-.882l.288-.75c.419-.013.876-.023,1.384-.029.527-.008,1.017-.01,1.481-.011l.472,1.1q.216.5.135.644t-.525.2a.814.814,0,0,0-.059.216,2.031,2.031,0,0,0-.016.249c.058,0,.135,0,.234-.005s.207-.008.329-.011l.357-.011c.116,0,.217-.005.3-.005.115,0,.255,0,.421.005l.477.011c.15,0,.263.009.334.016,0-.087,0-.162-.01-.227a1.429,1.429,0,0,0-.054-.238m-5.061-2.434.743-1.937q.1-.26.2-.546c.062-.172.132-.383.208-.622.089.23.167.428.23.584q.109.26.249.6l.824,1.926Z" transform="translate(10.854 6.072)" fill="#fafafa"/>
      <path id="Trazado_37" data-name="Trazado 37" d="M146.158,74.2c-.2.008-.44.015-.737.022s-.618.011-.967.011h-2.143q-.513,0-.952-.011c-.291-.006-.539-.014-.74-.022,0,.246-.015.519-.043.822s-.072.606-.13.909a.711.711,0,0,0,.249.076,1.819,1.819,0,0,0,.27.022,3.88,3.88,0,0,1,.189-.692.929.929,0,0,1,.379-.46,1.486,1.486,0,0,1,.784-.168h.552V80.17a1.753,1.753,0,0,1-.07.557.455.455,0,0,1-.261.281,1.652,1.652,0,0,1-.534.1.749.749,0,0,0-.043.2c-.008.076-.012.164-.012.265q.206-.011.445-.016l.492-.011c.169,0,.329-.005.481-.005.23,0,.467,0,.709.005s.478.013.708.027c0-.1,0-.189-.01-.265a.794.794,0,0,0-.043-.2,1.612,1.612,0,0,1-.531-.1.438.438,0,0,1-.248-.281,1.873,1.873,0,0,1-.066-.557V74.706h.574a1.146,1.146,0,0,1,.925.341,1.531,1.531,0,0,1,.3.979,1.1,1.1,0,0,0,.3-.016.961.961,0,0,0,.243-.081c-.029-.346-.049-.656-.059-.93s-.013-.541-.005-.8" transform="translate(11.496 6.074)" fill="#fafafa"/>
      <path id="Trazado_38" data-name="Trazado 38" d="M149.727,75.042a.464.464,0,0,1,.233-.281,1.071,1.071,0,0,1,.449-.1.808.808,0,0,0,.043-.206c.008-.079.012-.166.012-.26-.145.008-.288.012-.428.016l-.426.011c-.145,0-.3.005-.455.005s-.3,0-.454-.005l-.437-.011c-.141,0-.28-.009-.418-.016,0,.094,0,.181.012.26a.688.688,0,0,0,.043.206,1.057,1.057,0,0,1,.453.1.471.471,0,0,1,.227.281,1.87,1.87,0,0,1,.065.563V80.17a1.884,1.884,0,0,1-.065.557.453.453,0,0,1-.227.281,1.236,1.236,0,0,1-.453.1.673.673,0,0,0-.043.2c-.008.076-.012.163-.012.265.188-.015.4-.024.639-.027s.46-.005.67-.005.425,0,.649.005.444.012.661.027c0-.1,0-.189-.012-.265a.8.8,0,0,0-.043-.2,1.261,1.261,0,0,1-.449-.1.447.447,0,0,1-.233-.281,1.884,1.884,0,0,1-.065-.557V75.6a1.87,1.87,0,0,1,.065-.563" transform="translate(12.102 6.074)" fill="#fafafa"/>
      <path id="Trazado_39" data-name="Trazado 39" d="M158.091,74.609a3.8,3.8,0,0,0-3.24-.2,3.408,3.408,0,0,0-1.137.768,3.584,3.584,0,0,0-.762,1.179,3.983,3.983,0,0,0-.277,1.515,4.087,4.087,0,0,0,.449,1.926,3.388,3.388,0,0,0,3.122,1.85,3.578,3.578,0,0,0,1.444-.287,3.411,3.411,0,0,0,1.135-.8,3.6,3.6,0,0,0,.741-1.2,4.174,4.174,0,0,0,.26-1.488,3.964,3.964,0,0,0-.464-1.953,3.4,3.4,0,0,0-1.271-1.309m.351,5.041a2.493,2.493,0,0,1-.774,1.071,1.893,1.893,0,0,1-1.206.395,2.227,2.227,0,0,1-1.147-.292,2.615,2.615,0,0,1-.838-.79,3.729,3.729,0,0,1-.514-1.136,5.048,5.048,0,0,1-.173-1.32,3.749,3.749,0,0,1,.293-1.536,2.435,2.435,0,0,1,.794-1.022,1.91,1.91,0,0,1,1.142-.362,2.209,2.209,0,0,1,1.384.465,3.164,3.164,0,0,1,.959,1.26,4.339,4.339,0,0,1,.35,1.769,3.994,3.994,0,0,1-.27,1.5" transform="translate(12.497 6.069)" fill="#fafafa"/>
      <path id="Trazado_40" data-name="Trazado 40" d="M167.644,74.23c-.1,0-.21,0-.33-.005l-.352-.011c-.115,0-.227-.009-.334-.016a1.546,1.546,0,0,0,.01.189c.008.062.023.154.043.276a.668.668,0,0,1,.454.141.809.809,0,0,1,.227.471,5.046,5.046,0,0,1,.066.925v3.579l-4.209-5.58c-.094.008-.2.014-.33.022s-.257.011-.395.011c-.087,0-.179,0-.276-.005l-.28-.011c-.091,0-.172-.009-.245-.016,0,.057,0,.13.012.216a1.232,1.232,0,0,0,.043.249,1.373,1.373,0,0,1,.411.081.794.794,0,0,1,.291.254l.043.056v4.466a5.559,5.559,0,0,1-.064.957.844.844,0,0,1-.227.492.679.679,0,0,1-.454.141.858.858,0,0,0-.043.211c-.008.076-.012.16-.012.254.094-.008.2-.013.331-.016l.395-.011c.136,0,.255-.005.356-.005s.224,0,.346.005l.373.011c.127,0,.245.009.352.016a2.548,2.548,0,0,0-.011-.26.9.9,0,0,0-.043-.206.673.673,0,0,1-.453-.141.838.838,0,0,1-.227-.492,5.522,5.522,0,0,1-.066-.957V75.775l4.469,5.833a2,2,0,0,0,.248-.016.986.986,0,0,0,.217-.049V76.2a5.615,5.615,0,0,1,.058-.925.884.884,0,0,1,.2-.471.508.508,0,0,1,.378-.141,1.224,1.224,0,0,0,.043-.238c.008-.08.011-.155.011-.227-.144.008-.314.014-.508.022s-.367.011-.519.011" transform="translate(13.235 6.074)" fill="#fafafa"/>
      <path id="Trazado_41" data-name="Trazado 41" d="M171.315,77.037a.645.645,0,0,0-.476.184.591.591,0,0,0-.184.433.556.556,0,0,0,.162.411.614.614,0,0,0,.454.162.7.7,0,0,0,.444-.151.565.565,0,0,0,.195-.476.589.589,0,0,0-.157-.373.539.539,0,0,0-.438-.189" transform="translate(13.969 6.306)" fill="#fafafa"/>
      <path id="Trazado_42" data-name="Trazado 42" d="M64.542,45.9l.01,1.957h-.163c.011.28.032.551.054.831h8.276a22.925,22.925,0,1,1,45.481,0h8.655c.022-.227.043-.444.054-.671h.141c.011-.141.022-.292.022-.433h-.157l-.01-1.956-.006-1.959h.162c0-.043-.011-.076-.011-.119h-.162a31.185,31.185,0,0,0-7.67-18.294l.162-.162c-.065-.076-.13-.141-.194-.216l-.119.12-1.39-1.378-1.391-1.377.11-.111h0c-.065-.065-.13-.119-.195-.173l-.151.151A31.271,31.271,0,0,0,97.677,14.6v-.184a.527.527,0,0,1-.13-.011h0v.169l-1.959.011-1.955.006v-.154c-.141,0-.28.011-.421.022l.011.151A31.269,31.269,0,0,0,74.915,22.29l-.022-.032c-.022.011-.032.032-.054.043h0l.119.119-1.378,1.39L72.2,25.2l-.116-.115,0,0c-.108.119-.206.238-.314.357l.011.011c-.563.649-1.082,1.309-1.579,1.991a31.253,31.253,0,0,0-5.831,16.487v0h.167Zm51.706-17.161a.839.839,0,1,1,.005,1.186.838.838,0,0,1-.005-1.186" transform="translate(5.269 1.179)" fill="#fafafa"/>
      <path id="Trazado_43" data-name="Trazado 43" d="M73.773,23.984l1.378-1.391-.119-.118-1.323-1.31-.224.226a.546.546,0,0,0-.633-.574s.126-.127-.026-.529-.906-.048-1.537-.472-3.845-5.314-5.435-6.741a2.294,2.294,0,0,0-3.272-.186,2.3,2.3,0,0,0,.213,3.272c1.443,1.576,6.358,4.747,6.789,5.375s.081,1.385.485,1.534.53.022.53.022a.545.545,0,0,0,.581.626l-.226.228,1.325,1.316.116.114Z" transform="translate(5.075 1.007)" fill="#fafafa"/>
      <path id="Trazado_44" data-name="Trazado 44" d="M113.748,23.811l1.389,1.378.119-.12,1.311-1.321-.228-.225a.547.547,0,0,0,.577-.633s.127.127.529-.027.047-.906.47-1.535,5.314-3.845,6.741-5.436a2.3,2.3,0,0,0,.188-3.273,2.293,2.293,0,0,0-3.27.215c-1.581,1.44-4.749,6.358-5.377,6.789s-1.383.081-1.533.484-.024.529-.024.529a.547.547,0,0,0-.627.582l-.226-.225-1.319,1.33-.11.111Z" transform="translate(9.197 0.986)" fill="#fafafa"/>
      <path id="Trazado_45" data-name="Trazado 45" d="M93.393,15.762l1.959-.011v-.169l-.008-1.86h-.321a.543.543,0,0,0-.039-.853s.178,0,.355-.395-.609-.673-.754-1.418,1.039-6.475.922-8.61a2.187,2.187,0,1,0-4.34.017c-.1,2.138,1.137,7.854,1,8.6s-.922,1.037-.742,1.428.356.389.356.389a.546.546,0,0,0-.029.854l-.322,0,.01,1.874v.154Z" transform="translate(7.462 0.001)" fill="#fafafa"/>
      <path id="Trazado_46" data-name="Trazado 46" d="M122.174,43.435l.01,1.955h.157l1.872-.008v-.32a.546.546,0,0,0,.854-.039s0,.177.394.353.674-.608,1.42-.754,6.474,1.042,8.608.923a2.187,2.187,0,1,0-.017-4.34c-2.139-.1-7.853,1.137-8.6,1s-1.035-.92-1.425-.741-.392.359-.392.359a.545.545,0,0,0-.854-.034v-.319l-1.867.008h-.163Z" transform="translate(10 3.373)" fill="#fafafa"/>
      <path id="Trazado_47" data-name="Trazado 47" d="M52.427,45.905c2.137.1,7.854-1.138,8.6-1s1.034.922,1.427.741.387-.357.387-.357a.548.548,0,0,0,.858.031v.32l1.867-.009h.163l-.01-1.957-.009-1.958h-.167l-1.862.009v.32a.549.549,0,0,0-.856.038s0-.176-.392-.353-.674.608-1.42.754-6.475-1.04-8.612-.924a2.187,2.187,0,1,0,.021,4.341" transform="translate(4.089 3.402)" fill="#fafafa"/>
      <path id="Trazado_48" data-name="Trazado 48" d="M95.993,26.568a.346.346,0,0,0-.346-.346H92.205a.346.346,0,0,0-.346.346v4.2h4.134Z" transform="translate(7.519 2.147)" fill="#fafafa"/>
      <path id="Trazado_49" data-name="Trazado 49" d="M92.205,47.063h3.44a.347.347,0,0,0,.347-.346V34.247H91.859V46.716a.346.346,0,0,0,.346.346" transform="translate(7.519 2.804)" fill="#fafafa"/>
      <path id="Trazado_50" data-name="Trazado 50" d="M101.088,34.56a.464.464,0,0,0,.464-.465v-3.2a.464.464,0,0,0-.464-.464H87.547a.465.465,0,0,0-.465.464v3.2a.465.465,0,0,0,.465.465h13.54Z" transform="translate(7.128 2.491)" fill="#fafafa"/>
    </g>
  </g>
</svg>
