<svg xmlns="http://www.w3.org/2000/svg" width="45.233" height="45.233" viewBox="0 0 45.233 45.233">
  <path id="sentiment_satisfied_FILL0_wght400_GRAD0_opsz48" d="M34.871,23.62a2.994,2.994,0,1,0-2.177-.876A2.955,2.955,0,0,0,34.871,23.62Zm-16.51,0a2.994,2.994,0,1,0-2.177-.876A2.955,2.955,0,0,0,18.361,23.62ZM26.616,39a12.5,12.5,0,0,0,6.87-2.007,11.511,11.511,0,0,0,4.552-5.456H35.1a8.9,8.9,0,0,1-3.562,3.477,10.114,10.114,0,0,1-4.863,1.216,10.589,10.589,0,0,1-4.947-1.187,8.239,8.239,0,0,1-3.534-3.506h-3a11.9,11.9,0,0,0,4.58,5.456A12.36,12.36,0,0,0,26.616,39Zm0,10.234a21.883,21.883,0,0,1-8.764-1.781A22.786,22.786,0,0,1,5.781,35.38a22.591,22.591,0,0,1,0-17.584,22.6,22.6,0,0,1,4.863-7.181,23.184,23.184,0,0,1,7.209-4.834,22.591,22.591,0,0,1,17.584,0A22.581,22.581,0,0,1,47.452,17.8a22.591,22.591,0,0,1,0,17.584,23.184,23.184,0,0,1-4.834,7.209,22.6,22.6,0,0,1-7.181,4.863A22.023,22.023,0,0,1,26.616,49.233Zm0-22.616Zm0,19.224a18.5,18.5,0,0,0,13.626-5.626,18.573,18.573,0,0,0,5.6-13.6,18.546,18.546,0,0,0-5.6-13.626,18.546,18.546,0,0,0-13.626-5.6,18.573,18.573,0,0,0-13.6,5.6A18.5,18.5,0,0,0,7.392,26.616a18.526,18.526,0,0,0,5.626,13.6A18.526,18.526,0,0,0,26.616,45.84Z" transform="translate(-4 -4)" fill="#235286"/>
</svg>
