<svg xmlns="http://www.w3.org/2000/svg" width="69.114" height="34.557" viewBox="0 0 69.114 34.557">
  <path id="groups_FILL0_wght400_GRAD0_opsz48" d="M0,46.557V42.741q0-2.808,3.024-4.536A15.544,15.544,0,0,1,10.8,36.478q.936,0,1.728.036a11.854,11.854,0,0,1,1.584.18,11.722,11.722,0,0,0-1.152,5.184v4.68Zm17.278,0v-4.68q0-4.68,4.788-7.559t12.491-2.88q7.775,0,12.527,2.88t4.752,7.559v4.68Zm38.876,0v-4.68a13.759,13.759,0,0,0-.252-2.7,10.791,10.791,0,0,0-.828-2.484,11.854,11.854,0,0,1,1.584-.18q.792-.036,1.656-.036a15.463,15.463,0,0,1,7.847,1.728,5.146,5.146,0,0,1,2.952,4.536v3.816Zm-21.6-10.8A21.727,21.727,0,0,0,25.2,37.486q-3.6,1.728-3.6,4.392v.36H47.516v-.432q0-2.592-3.564-4.32A21.68,21.68,0,0,0,34.557,35.758ZM10.8,34.318a4.856,4.856,0,0,1-3.564-1.476,5.04,5.04,0,0,1,0-7.127A4.856,4.856,0,0,1,10.8,24.239a5.04,5.04,0,0,1,3.564,8.6A4.856,4.856,0,0,1,10.8,34.318Zm47.516,0a5.04,5.04,0,0,1-3.564-8.6,5.04,5.04,0,0,1,7.127,7.127A4.856,4.856,0,0,1,58.315,34.318Zm-23.758-5.04a8.6,8.6,0,0,1-8.639-8.639,8.3,8.3,0,0,1,2.52-6.155A8.393,8.393,0,0,1,34.557,12,8.485,8.485,0,0,1,43.2,20.639a8.393,8.393,0,0,1-2.484,6.119A8.3,8.3,0,0,1,34.557,29.278Zm0-12.959a4.229,4.229,0,0,0-3.06,1.224,4.389,4.389,0,0,0,0,6.155,4.389,4.389,0,0,0,6.155,0,4.229,4.229,0,0,0,1.224-3.06,4.186,4.186,0,0,0-4.32-4.32Zm0,25.918Zm0-21.6Z" transform="translate(0 -12)" fill="#235286"/>
</svg>
